<?xml version="1.0" encoding="UTF-8" standalone="no"?>
<svg
   xmlns:dc="http://purl.org/dc/elements/1.1/"
   xmlns:cc="http://creativecommons.org/ns#"
   xmlns:rdf="http://www.w3.org/1999/02/22-rdf-syntax-ns#"
   xmlns:svg="http://www.w3.org/2000/svg"
   xmlns="http://www.w3.org/2000/svg"
   viewBox="0 0 1000 666.69336"
   height="666.69336"
   width="1000"
   xml:space="preserve"
   id="svg2"
   version="1.1"><metadata
     id="metadata8"><rdf:RDF><cc:Work
         rdf:about=""><dc:format>image/svg+xml</dc:format><dc:type
           rdf:resource="http://purl.org/dc/dcmitype/StillImage" /></cc:Work></rdf:RDF></metadata><defs
     id="defs6" /><g
     transform="matrix(1.3333333,0,0,-1.3333333,0,666.69333)"
     id="g10"><g
       transform="scale(0.1)"
       id="g12"><path
         id="path14"
         style="fill:#ffffff;fill-opacity:1;fill-rule:nonzero;stroke:none"
         d="M 0,0 H 7500 V 5000 H 0 Z" /><path
         id="path16"
         style="fill:#fddee9;fill-opacity:1;fill-rule:nonzero;stroke:none"
         d="M 6079.97,5000 H 2544.25 c 0.05,0.08 0.09,0.14 0.14,0.23 1178.51,-0.08 2357.07,-0.16 3535.58,-0.23" /><path
         id="path18"
         style="fill:#fddeea;fill-opacity:1;fill-rule:nonzero;stroke:none"
         d="m 4998.52,984.711 c -0.09,0.141 -0.18,0.269 -0.28,0.41 h 165.55 71.81 616 c 1.45,0 2.91,-0.012 4.36,-0.012 1.46,0 2.89,0.012 4.34,0.012 h 642.36 v 879.419 c 0,120.68 -35.1,233.19 -95.62,327.85 53.27,18.63 98.24,55.72 141.16,91.7 4.77,4 2.6,10.99 -3.26,12.24 -31.02,6.61 -62.39,9.86 -93.6,9.86 -41.09,0 -81.91,-5.63 -121.34,-16.66 -15.33,15.76 -31.49,30.67 -48.44,44.7 21.33,29.13 43.1,57.96 65.26,86.47 0.78,-0.44 1.64,-0.65 2.5,-0.65 1.41,0 2.81,0.56 3.87,1.55 0.77,-0.52 1.63,-0.84 2.53,-0.84 1.05,0 2.15,0.42 3.21,1.44 1.25,1.17 2.47,2.34 3.71,3.52 11.71,-1.54 23.47,-2.28 35.18,-2.28 115.25,-0.01 227.35,72.12 283.2,171.2 2.46,4.36 -2.09,8.83 -6.28,8.83 -0.17,0 -0.33,0 -0.49,-0.02 -64.09,-5.49 -126.3,-23.7 -182.83,-54.57 -32.41,-17.69 -66.86,-40.1 -95.91,-66.84 9.4,11.63 18.82,23.25 28.35,34.76 51.01,61.63 104.13,121.09 158.26,179.61 53.68,5.86 103.32,43.22 138.9,81.75 48.69,52.75 81.47,120.78 104.13,188.32 1.65,4.94 -2.39,8.68 -6.3,8.68 -1.96,0 -3.89,-0.94 -5.05,-3.14 -118.91,-32.64 -223.98,-137.13 -238.25,-262.72 -59.26,-63 -116.13,-128.37 -170.86,-194.85 15.62,35.83 25.42,73.99 25.13,113.13 -0.48,66.87 -24.62,130.72 -37.29,195.72 -0.74,3.79 -3.89,5.89 -7.04,5.89 -2.49,0 -4.98,-1.31 -6.28,-4.14 -31.7,-68.93 -61.51,-142.74 -73.95,-218.01 -10.75,-65.04 9.14,-115.88 34.57,-173.36 -23.37,-29.93 -46.31,-60.25 -68.78,-90.95 -14.26,11.29 -29.03,21.94 -44.29,31.93 -10.17,87.36 -59.57,173.98 -106.01,245.29 -1.4,2.15 -3.47,3.06 -5.58,3.06 -3.07,0 -6.24,-1.91 -7.68,-4.75 -28.82,-56.86 -34.01,-116.52 -23.84,-174.65 -59.91,19.69 -123.91,30.33 -190.41,30.33 h -43.44 c -15.3,25.19 -28.07,51.48 -36.92,80.58 -5.22,17.17 -9.2,34.43 -12.21,51.74 0.01,0.05 0.02,0.09 0.03,0.14 -6.94,39.92 -8.85,80.19 -9.22,120.78 18.34,18.94 36.71,39.27 47.45,61.35 4.18,8.62 14.81,55.04 14.81,55.04 l -34.76,42.81 c 44.43,-10.52 100.48,-23.18 126.01,-26.96 -7.04,-29.24 -13.41,-56.1 -18.69,-78.96 -10.43,-45.08 -16.68,-74.61 -15.68,-76.23 v 0 c 0,-0.01 0,-0.01 0,-0.01 0.01,0 0.01,-0.01 0.01,-0.01 0,0 0,0 0.01,-0.01 v 0 c 25.2,-29.8 65.87,-40.54 108.79,-40.54 0.02,0 0.03,0 0.05,0 v 0 0 c 0.02,0 0.05,0 0.07,0 50.07,0.01 103.16,14.6 138.36,30.54 v 0 c 93.72,42.45 169.73,125.19 207.26,220.62 v 0 0 c 39.51,100.5 29.16,219.99 -44.22,302.77 -31.85,35.92 -73.82,62.44 -119.42,77.18 -24.21,7.82 -54.73,14.46 -83.94,14.46 -12.57,0 -24.9,-1.22 -36.38,-4.12 -2.61,6.87 -5.37,13.67 -8.3,20.4 -36.68,84.37 -103.56,157.12 -194.54,181.31 -32.61,8.67 -70.16,14.52 -107.66,14.52 -48.51,0 -96.94,-9.8 -134.48,-35.94 -49.83,56.34 -130.11,79.5 -205.41,79.5 -12.94,0 -25.72,-0.68 -38.18,-2 -96.65,-10.2 -185.58,-60.94 -248.75,-134.08 -155.66,-180.2 -115.58,-440.14 36.07,-609.57 h 0.01 c 0.69,-0.78 1.41,-1.57 2.1,-2.34 0.02,-0.03 0.06,-0.06 0.08,-0.09 0.14,-0.15 0.28,-0.31 0.43,-0.47 0.03,-0.04 0.08,-0.09 0.12,-0.13 0.12,-0.13 0.26,-0.29 0.38,-0.42 0.05,-0.05 0.09,-0.1 0.14,-0.15 0.13,-0.15 0.26,-0.29 0.39,-0.43 0.04,-0.05 0.08,-0.09 0.12,-0.13 0.01,-0.01 0.02,-0.02 0.03,-0.03 10.27,-68.7 49.35,-135.25 93.19,-186.72 48.75,-57.21 115.55,-89.3 189.61,-89.3 6.98,-0.01 14.02,0.28 21.13,0.86 30.2,2.45 59.24,9.63 86.92,20.4 1.19,-13.94 1.5,-27.99 0.08,-42.26 -0.01,0 -0.01,-0.01 -0.01,-0.02 -0.01,-0.1 -0.02,-0.2 -0.03,-0.3 0,-0.03 0,-0.05 0,-0.07 -0.01,-0.08 -0.02,-0.16 -0.03,-0.24 0,-0.04 -0.01,-0.08 -0.01,-0.11 -0.01,-0.07 -0.02,-0.15 -0.02,-0.22 -0.01,-0.04 -0.01,-0.07 -0.01,-0.11 -0.02,-0.1 -0.03,-0.21 -0.04,-0.32 v 0 c -2.28,-21.18 -8.67,-41.62 -16.94,-61.18 -6.58,-15.51 -11.09,-31.13 -22.5,-44.02 -8.61,-9.72 -19.13,-16.5 -30.65,-21.48 -0.08,-0.03 -0.17,-0.07 -0.25,-0.1 0,0 0,0 0,-0.01 -2.18,-0.94 -4.4,-1.81 -6.65,-2.62 v 0 c -0.19,0.02 -0.38,0.04 -0.57,0.04 -0.68,0 -1.34,-0.19 -1.99,-0.59 -2.1,-0.21 -3.64,0.05 -4.49,-1.84 -19.44,-5.96 -40.57,-8.35 -59.77,-11.6 -23.89,-4.03 -48.14,-7.15 -72.03,-11.75 0.04,2.25 0.07,4.5 0.09,6.75 0.1,15.36 -1.85,33.35 -14.96,41.35 -3.93,2.4 -8.38,3.47 -12.91,3.47 -8.01,0 -16.3,-3.34 -22.52,-8.59 -9.76,-8.21 -15.53,-20.12 -20.63,-31.8 -5.87,-13.45 -11.22,-27.12 -16.04,-40.98 -39.48,-23.36 -69.72,-59.69 -95.28,-99.67 -30.53,68.54 -57.45,127.05 -57.45,127.05 28.68,61.83 48.05,127.96 57.29,195.48 2.2,16.12 3.8,32.8 -0.71,48.43 -4.51,15.63 -16.46,30.12 -32.47,33.05 -1.99,0.37 -3.98,0.54 -5.97,0.54 -14.79,0 -29.02,-9.67 -37.29,-22.29 -9.37,-14.32 -12.52,-31.74 -14.6,-48.73 -7.05,-57.51 -4.08,-116.19 8.45,-172.76 -13.86,25.1 -27.99,50.05 -42.71,74.66 -28.63,47.87 -59.13,94.65 -91.19,140.34 32.1,63.22 48.29,134.46 46.48,205.34 -0.52,20.31 -8.83,46.64 -28.78,46.64 -0.29,0 -0.59,0 -0.88,-0.02 -16,-0.61 -25.06,-18.33 -29.72,-33.66 -18.32,-60.22 -21.5,-124.92 -9.57,-186.71 -30.33,41.63 -62.25,82.07 -95.62,121.28 -6.37,24.75 -42.62,162.72 -72.4,212.46 -20.55,34.31 -53.71,69.03 -91.82,69.03 -4.3,0 -8.66,-0.44 -13.07,-1.38 -34.27,-7.24 -56.45,-44.11 -56.1,-79.14 0.35,-35.02 18.61,-67.55 40.92,-94.56 44.45,-53.81 107.41,-91.89 175.56,-106.83 37.62,-45 73.19,-91.7 106.84,-139.75 -39.7,22.48 -91.83,35.66 -136.42,35.66 -5.11,0 -10.13,-0.17 -15.01,-0.52 -16.98,-1.22 -34.6,-4.67 -47.85,-15.36 -13.24,-10.69 -20.46,-30.36 -12.48,-45.39 8.16,-15.37 26.53,-19.28 44.85,-19.28 5.61,0 11.23,0.37 16.54,0.89 42.88,4.19 131.21,21.21 161.95,27.26 32.5,-47.35 63.2,-95.94 91.97,-145.61 16.96,-29.28 33.23,-58.94 48.98,-88.87 -51.3,44.99 -117.64,72.64 -185.78,76.53 -2.17,0.12 -4.39,0.19 -6.64,0.19 -23.05,0 -48.98,-6.91 -54.86,-28.41 -7.55,-27.74 24.99,-48.71 52.46,-57.16 50.92,-15.65 104.17,-23.5 157.43,-23.49 17.61,0 35.22,0.85 52.75,2.57 21.99,-43.12 42.83,-86.83 62.56,-131.04 -12.47,-21.39 -23.9,-43.29 -34.95,-64.36 -34.04,20.59 -71.53,35.46 -110.55,43.29 -10.34,2.08 -21.06,3.65 -31.61,3.65 -9.97,0 -19.8,-1.4 -29.06,-5.09 -19.06,-7.62 -34.5,-27.64 -30.67,-47.81 3.99,-20.96 25.43,-33.25 44.95,-41.87 36.16,-15.98 73.56,-29.11 111.75,-39.28 -20.8,-41.62 -40.72,-83.69 -60.34,-125.9 -2.66,0.28 -5.33,0.43 -8.02,0.44 -0.09,0 -0.18,0 -0.27,0 -17.88,0 -36.69,-7.61 -45.73,-23.01 -10.24,-17.4 -5.49,-40.51 6.38,-56.83 2.18,-3 4.56,-5.81 7.09,-8.47 -6.45,-14.01 -12.92,-28.02 -19.42,-42 -2.54,-5.47 -5.06,-10.97 -7.56,-16.5 l -81.06,230.23 h -170.64 c 2.86,40.16 -10,81.21 -41.51,105.27 -19.88,15.18 -44.51,21.74 -69.63,21.74 -19.34,0 -38.96,-3.89 -56.94,-10.73 -41.35,-15.74 -75.99,-44.84 -109.75,-73.43 7.2,220.26 241.96,394.07 219.08,613.26 -13.35,127.97 -127.79,237.75 -256.2,245.78 -5.09,0.32 -10.18,0.48 -15.26,0.48 -123.08,0 -241.53,-92.1 -269.56,-212.43 -29.01,-124.5 30.31,-250.38 51.57,-376.42 4.06,-24.11 5.48,-52.27 -12.02,-69.32 -8.22,-8 -18.86,-11.48 -30,-11.48 -18.08,0 -37.45,9.18 -49.76,23.15 -19.89,22.57 -27.08,53.19 -36.85,81.63 -9.79,28.45 -25.05,58.11 -52.74,69.86 -7.71,3.28 -15.72,4.77 -23.74,4.77 -31.96,0 -64.11,-23.79 -78.18,-54.04 -7.5,-16.12 -11.16,-33.34 -12.44,-51 -13.33,26.06 -29.78,50.17 -51.03,70.28 -17.97,17.01 -40.13,30.45 -63.72,38.42 -62.24,207.9 -18.73,465.64 -174.41,617.1 -147.76,143.75 -386.88,106.61 -587.53,153.94 -267.47,63.09 -475.52,291.81 -566.14,551.26 -131.98,377.85 -76.45,902.86 128.63,1246.95 h 3535.72 c 473.36,-0.03 946.67,-0.06 1420.03,-0.09 V 985.238 c -125.96,-0.019 -251.86,-0.047 -377.82,-0.078 l 95.67,362.53 h 89.69 v 159.54 h -47.59 -57.67 c 29.27,17.68 57.14,37.41 82.66,60.29 21.12,18.94 41.22,41.32 47.37,69 6.16,27.7 -6.53,61.27 -33.57,69.83 -13.02,4.12 -30.1,3.83 -36.1,16.08 -4.62,9.43 0.79,20.63 7.01,29.08 17.28,23.48 41.33,40.87 63.77,59.46 22.45,18.6 44.3,39.73 54.61,67 10.3,27.26 5.9,62.03 -17.27,79.71 -10.68,8.16 -23.91,11.69 -37.41,11.69 -10.4,0 -20.94,-2.09 -30.61,-5.77 -22.21,-8.45 -40.83,-24.1 -58.97,-39.46 3.87,118.37 130.03,211.78 117.73,329.56 -7.17,68.77 -68.68,127.76 -137.68,132.08 -2.74,0.17 -5.47,0.26 -8.2,0.26 -66.14,0 -129.8,-49.49 -144.86,-114.16 -15.58,-66.9 16.29,-134.55 27.72,-202.29 2.17,-12.94 2.94,-28.09 -6.47,-37.25 -4.41,-4.3 -10.13,-6.17 -16.12,-6.17 -9.71,0 -20.12,4.94 -26.73,12.44 -10.69,12.13 -14.55,28.59 -19.81,43.88 -5.26,15.28 -13.46,31.22 -28.33,37.54 -4.15,1.76 -8.45,2.56 -12.76,2.56 -17.18,0 -34.46,-12.79 -42.02,-29.05 -2.09,-4.48 -3.62,-9.13 -4.71,-13.89 -11.86,6.06 -24.95,9.58 -37.84,9.58 -9.59,0 -19.07,-1.95 -27.85,-6.26 -11.91,-5.84 -21.91,-15.56 -34.61,-19.34 -3.83,-1.14 -7.7,-1.67 -11.54,-1.67 -20.57,0 -40.53,15.18 -51.98,33.27 -13.6,21.47 -19.34,46.95 -30.85,69.61 -19.63,38.69 -60.61,68.47 -103.04,68.47 -6.19,0 -12.42,-0.63 -18.61,-1.96 -48.61,-10.46 -81.52,-73.61 -53.29,-114.54 9.44,-13.69 23.88,-23.48 32.5,-37.69 8.62,-14.21 8.11,-36.74 -7.12,-43.38 -3.05,-1.33 -6.18,-1.83 -9.37,-1.83 -5.17,0 -10.5,1.32 -15.87,2.65 -5.38,1.32 -10.8,2.65 -16.17,2.65 -1.2,0 -2.41,-0.07 -3.61,-0.22 -17.19,-2.14 -28.09,-21.41 -26.94,-38.71 1.14,-17.3 11.09,-32.66 21.37,-46.62 38.91,-52.76 87.61,-98.3 142.87,-133.58 25.68,-16.4 54.63,-32.68 65.91,-60.99 10.33,-25.92 -7.55,-62.65 -33.24,-62.65 -2.37,0 -4.82,0.31 -7.31,0.98 -19.16,5.12 -29.74,27.45 -48.78,32.99 -2.74,0.8 -5.48,1.17 -8.19,1.17 -20.21,0 -38.47,-20.85 -40.09,-42.11 -1.84,-24.1 11,-46.72 24.56,-66.73 28.12,-41.48 65.06,-80.6 106.97,-115.51 h -91.35 -47.59 v -159.54 h 89.69 l 95.68,-362.569 h 105.54 C 6267.1,984.98 5632.8,984.852 4998.52,984.711 m 1945.46,1486.309 -115.61,-54.36 54.36,-115.62 115.62,54.37 -54.37,115.61 m 300.54,172.86 -93.57,-12.92 12.93,-93.57 93.56,12.92 -12.92,93.57 m -357.54,166.45 c -14.57,0 -26.38,-11.81 -26.38,-26.38 0,-14.57 11.81,-26.38 26.38,-26.38 14.56,0 26.38,11.81 26.38,26.38 0,14.57 -11.82,26.38 -26.38,26.38 m 506.3,164.29 c -14.57,0 -26.38,-11.81 -26.38,-26.38 0,-14.57 11.81,-26.38 26.38,-26.38 14.57,0 26.38,11.81 26.38,26.38 0,14.57 -11.81,26.38 -26.38,26.38 m -3374.27,350.46 -115.61,-54.36 54.36,-115.62 115.62,54.36 -54.37,115.62 m 3111.29,-11.82 -14.51,-137.72 113.13,42.43 -98.62,95.29 m -426.25,-15.62 -93.58,-12.91 12.93,-93.58 93.56,12.93 -12.91,93.56 m -3322.09,153.88 -93.58,-12.92 12.93,-93.57 93.57,12.92 -12.92,93.57 m 1614.42,118.07 c -14.57,0 -26.38,-11.81 -26.38,-26.38 0,-14.57 11.81,-26.38 26.38,-26.38 14.57,0 26.37,11.81 26.37,26.38 0,14.57 -11.8,26.38 -26.37,26.38 m 2390.57,71.31 -41.97,-1.87 1.87,-41.97 41.97,1.87 -1.87,41.97 m -3571.89,94.89 -40.95,-132.29 119.21,19.7 -78.26,112.59 m 3186.32,-0.8 -22.48,-77.79 77.78,-22.48 22.48,77.79 -77.78,22.48 m -4115.39,83.14 -64.78,-30.46 30.45,-64.78 64.79,30.46 -30.46,64.78 m 2713.08,14.3 c -14.57,0 -26.37,-11.81 -26.37,-26.38 0,-14.57 11.8,-26.38 26.37,-26.38 14.57,0 26.38,11.81 26.38,26.38 0,14.57 -11.81,26.38 -26.38,26.38 m -1227.73,75.84 -57.8,-27.18 27.17,-57.81 57.81,27.18 -27.18,57.81 m 2336.23,27.86 -93.59,-12.91 12.93,-93.57 93.57,12.92 -12.91,93.56 m -1915.25,78.62 -93.58,-12.91 12.93,-93.57 93.56,12.92 -12.91,93.56 m -1517.32,10.97 -22.47,-77.79 77.78,-22.47 22.48,77.79 -77.79,22.47 m 3759.51,282.78 -85.37,-137.6 137.61,-85.36 85.37,137.6 -137.61,85.36 m -1805.58,-9.66 -115.62,-54.36 54.36,-115.62 115.62,54.37 -54.36,115.61 m 602.4,-16.83 -57.81,-27.18 27.18,-57.81 57.81,27.18 -27.18,57.81 m -1913.66,23.12 -93.58,-12.91 12.93,-93.57 93.57,12.92 -12.92,93.56 m 416.98,-41.58 c -14.57,0 -26.39,-11.82 -26.39,-26.38 0,-14.57 11.82,-26.38 26.39,-26.38 14.57,0 26.37,11.81 26.37,26.38 0,14.56 -11.8,26.38 -26.37,26.38 m -1537.91,0 c -14.56,0 -26.37,-11.82 -26.37,-26.38 0,-14.57 11.81,-26.38 26.37,-26.38 14.57,0 26.38,11.81 26.38,26.38 0,14.56 -11.81,26.38 -26.38,26.38 m 3428.94,76.5 -22.48,-77.78 77.79,-22.48 22.48,77.79 -77.79,22.47 m -1491.22,446.81 -85.36,-137.6 137.61,-85.37 85.36,137.61 -137.61,85.36 m 2028.64,-68.75 -52.72,-126.6 133.53,36.77 -80.81,89.83 m -3407.73,63.51 -52.71,-126.6 133.52,36.77 -80.81,89.83 m 3931.01,-62.03 c -14.57,0 -26.38,-11.81 -26.38,-26.38 0,-14.57 11.81,-26.38 26.38,-26.38 14.57,0 26.37,11.81 26.37,26.38 0,14.57 -11.8,26.38 -26.37,26.38 m -1824.51,109.8 47.55,-111.07 90.68,102.88 -138.23,8.19 m -2742.91,-5.41 -22.48,-77.78 77.79,-22.47 22.47,77.78 -77.78,22.47 m 3574.7,16.13 -93.57,-12.92 12.93,-93.57 93.56,12.92 -12.92,93.57 M 4015.68,4808 c -14.57,0 -26.37,-11.81 -26.37,-26.38 0,-14.57 11.8,-26.37 26.37,-26.37 14.57,0 26.39,11.8 26.39,26.37 0,14.57 -11.82,26.38 -26.39,26.38 M 5227.26,1144.12 c -15.88,4.41 -32.9,6.96 -50.48,8.07 l -77.27,219.47 c 11.39,28.87 25.35,56.84 40.61,84.17 28.6,-19.04 57.65,-37.38 87.14,-55.01 v -256.7 m 0,444.14 c -1.36,1.07 -2.72,2.14 -4.09,3.2 1.36,2.17 2.73,4.35 4.09,6.52 v -9.72 m 1948.13,964.34 -9.24,66.84 66.86,9.23 9.23,-66.84 -66.85,-9.23 m -43.89,643.24 9.32,88.49 63.37,-61.21 -72.69,-27.28 m -496.59,10.52 -9.23,66.85 66.85,9.22 9.23,-66.84 -66.85,-9.23 m -3322.08,153.88 -9.24,66.84 66.85,9.23 9.23,-66.84 -66.84,-9.23 m 480.63,260.13 26.31,85 50.28,-72.34 -76.59,-12.66 m 2844.97,224.48 -9.24,66.85 66.85,9.22 9.23,-66.83 -66.84,-9.24 m -1915.25,78.63 -9.23,66.84 66.85,9.22 9.23,-66.83 -66.85,-9.23 m 2359.22,180.63 -114.68,71.14 71.14,114.67 114.68,-71.13 -71.14,-114.68 m -3233.86,109.74 -9.24,66.85 66.85,9.22 9.22,-66.83 -66.83,-9.24 m 933.81,368.62 -114.68,71.13 71.15,114.68 114.68,-71.14 -71.15,-114.67 m 1951.12,29.41 33.86,81.33 51.93,-57.72 -85.79,-23.61 m -3407.72,63.5 33.86,81.33 51.93,-57.72 -85.79,-23.61 m 2187.68,67.89 -30.56,71.36 88.82,-5.27 -58.26,-66.09 m 711.1,5.56 -9.24,66.84 66.86,9.23 9.22,-66.84 -66.84,-9.23" /><path
         id="path20"
         style="fill:#c5abdc;fill-opacity:1;fill-rule:nonzero;stroke:none"
         d="m 4664.42,3040.78 c 43.54,9.21 82.03,-29.47 104.89,-67.65 29.78,-49.74 66.03,-187.71 72.4,-212.46 33.37,-39.21 65.29,-79.65 95.62,-121.28 -11.93,61.79 -8.75,126.49 9.57,186.71 4.66,15.33 13.72,33.05 29.72,33.66 20.59,0.79 29.13,-26.02 29.66,-46.62 1.81,-70.88 -14.38,-142.12 -46.48,-205.34 32.06,-45.69 62.56,-92.47 91.19,-140.34 14.72,-24.61 28.85,-49.56 42.71,-74.66 -12.53,56.57 -15.5,115.25 -8.45,172.76 2.08,16.99 5.23,34.41 14.6,48.73 9.38,14.32 26.44,24.84 43.26,21.75 16.01,-2.93 27.96,-17.42 32.47,-33.05 4.51,-15.63 2.91,-32.31 0.71,-48.43 -9.24,-67.52 -28.61,-133.65 -57.29,-195.48 0,0 82.67,-179.7 122.56,-278.12 -9.41,99.06 6.39,200.5 46.21,291.72 5.1,11.68 10.87,23.59 20.63,31.8 9.74,8.21 24.55,11.76 35.43,5.12 13.11,-8 15.06,-25.99 14.96,-41.35 -0.77,-114.79 -37.21,-229.06 -102.87,-323.21 6.18,-15.78 12.34,-31.57 18.29,-47.44 27.21,-72.66 51.9,-146.18 74.8,-220.26 -7.27,99.93 8.13,201.54 45.46,294.53 8.97,22.34 27.34,48.36 50.52,41.92 19.07,-5.3 25.24,-29.03 26.46,-48.78 7.65,-123.74 -47.81,-241.46 -102.82,-352.75 20.65,-70.37 39.81,-141.15 57.72,-212.19 13.33,-52.9 25.96,-105.96 38.2,-159.09 7.35,142.14 51.83,282.4 128.96,402.16 14.81,22.96 37.86,48.12 64.46,41.63 24.33,-6.05 34.56,-35.55 34.34,-60.57 -0.39,-56.48 -31.29,-107.57 -61.28,-155.42 -53.39,-85.21 -106.78,-170.33 -160.11,-255.46 24.23,-106.58 46.74,-213.48 68.98,-320.308 l -39.29,-7.891 c -19.69,101.699 -39.62,203.299 -60.98,304.529 -128.29,58.13 -250.65,129.1 -364.87,211.49 -27.55,19.9 -55.65,41.67 -70.17,72.42 -14.53,30.69 -10.68,72.82 17.35,92.01 30.24,20.54 71.4,6.38 103.67,-10.8 134.81,-71.58 243.69,-189.91 306.29,-328.93 -11.94,55.61 -24.32,111.11 -37.45,166.42 -14.22,59.99 -29.31,119.76 -45.44,179.24 -56.03,21.73 -249.34,97.78 -327.93,142.89 -17.5,10.06 -35.23,20.98 -47.11,37.31 -11.87,16.32 -16.62,39.43 -6.38,56.83 9.09,15.48 28.05,23.09 46,23.01 17.95,-0.07 35.21,-6.61 51.65,-13.8 110.12,-48.08 208.35,-110.38 272.91,-207.04 -26.21,93.68 -55.13,186.56 -87.96,278.09 -5.25,14.63 -10.72,29.18 -16.17,43.74 -90.8,5.3 -180.62,26.98 -263.82,63.75 -19.52,8.62 -40.96,20.91 -44.95,41.87 -3.83,20.17 11.61,40.19 30.67,47.81 19.06,7.6 40.55,5.48 60.67,1.44 82.49,-16.56 158.17,-64.54 208.74,-131.73 -37.03,96.7 -78.77,191.61 -125.8,283.84 -70.54,-6.91 -142.42,0.1 -210.18,20.92 -27.47,8.45 -60.01,29.42 -52.46,57.16 6.45,23.6 37.06,29.62 61.5,28.22 68.14,-3.89 134.48,-31.54 185.78,-76.53 -15.75,29.93 -32.02,59.59 -48.98,88.87 -28.77,49.67 -59.47,98.26 -91.97,145.61 -30.74,-6.05 -119.07,-23.07 -161.95,-27.26 -22.63,-2.21 -50.72,-1.69 -61.39,18.39 -7.98,15.03 -0.76,34.7 12.48,45.39 13.25,10.69 30.87,14.14 47.85,15.36 47.48,3.43 107.17,-10.09 151.43,-35.14 -33.65,48.05 -69.22,94.75 -106.84,139.75 -68.15,14.94 -131.11,53.02 -175.56,106.83 -22.31,27.01 -40.57,59.54 -40.92,94.56 -0.35,35.03 21.83,71.9 56.1,79.14" /><path
         id="path22"
         style="fill:#f35ca3;fill-opacity:1;fill-rule:nonzero;stroke:none"
         d="m 3972.2,1229.01 c -98.63,118.15 -171.46,257.71 -211.98,406.17 -11.83,43.33 -20.77,90.39 -4.8,132.37 15.97,41.99 65.96,73.83 106.75,55.03 24.5,-11.29 38.85,-36.48 56.81,-56.59 17.97,-20.11 47.39,-36.54 71.01,-23.53 33.74,18.58 18.93,69.45 1.32,103.72 -64.83,126.2 -108.48,263.24 -128.59,403.69 -5.91,41.33 -9.44,85.31 8.17,123.18 17.61,37.85 63.49,65.58 101.92,49.27 27.69,-11.75 42.95,-41.41 52.74,-69.86 9.77,-28.44 16.96,-59.06 36.85,-81.63 19.9,-22.57 58.2,-32.66 79.76,-11.67 17.5,17.05 16.08,45.21 12.02,69.32 -21.26,126.04 -80.58,251.92 -51.57,376.42 29.19,125.3 156.41,219.98 284.82,211.95 128.41,-8.03 242.85,-117.81 256.2,-245.78 22.88,-219.19 -211.88,-393 -219.08,-613.26 33.76,28.59 68.4,57.69 109.75,73.43 41.35,15.74 91.4,15.84 126.57,-11.01 43.11,-32.92 51.3,-97.59 32.13,-148.34 -19.17,-50.74 -59.86,-90.06 -101.62,-124.67 -41.77,-34.6 -86.51,-66.97 -118.67,-110.65 -11.58,-15.74 -21.64,-36.55 -13.04,-54.11 11.16,-22.81 42.95,-22.27 67.17,-29.93 50.33,-15.92 73.93,-78.4 62.49,-129.93 -11.46,-51.53 -48.85,-93.17 -88.16,-128.41 -128.74,-115.43 -289.48,-187.66 -447.41,-258.09 l -81.56,92.91" /><path
         id="path24"
         style="fill:#393c43;fill-opacity:1;fill-rule:nonzero;stroke:none"
         d="m 4421.61,1575.42 c -131.02,-51.33 -255.49,-117.54 -371.3,-197.43 29.93,149.31 63.11,297.96 99.53,445.82 37,41.75 103.39,58.13 152.55,78.02 65.85,26.64 131.69,53.27 197.53,79.91 8.49,3.42 1.74,15.95 -6.66,12.54 -71.57,-28.95 -143.14,-57.9 -214.7,-86.85 -40.34,-16.32 -87.6,-30.23 -122.41,-58.29 31.31,125.73 64.94,250.89 100.93,375.37 46.88,61.99 101.09,117.44 161.96,165.81 7.18,5.7 -2.51,16.11 -9.63,10.44 -52.3,-41.55 -99.59,-88.45 -141.75,-140 2.75,9.39 5.44,18.8 8.22,28.17 35.3,119.21 72.8,237.76 112.3,355.65 2.91,8.67 -10.68,12.82 -13.58,4.15 -31.22,-93.14 -61.05,-186.74 -89.64,-280.71 -5.91,67.95 -19.03,134.85 -39.59,200.08 -2.73,8.66 -16.59,5.47 -13.83,-3.27 23.85,-75.65 37.91,-153.52 41.75,-232.76 l 0.24,-1.6 c -9.93,-33.07 -19.63,-66.19 -29.23,-99.36 -0.69,-0.91 -1.41,-1.8 -2.1,-2.71 -1.79,-2.39 -1.69,-4.79 -0.61,-6.7 -37.43,-129.8 -72.37,-260.29 -104.75,-391.44 -1.08,-1.28 -2.2,-2.52 -3.23,-3.86 -65.34,129.59 -113.98,266.68 -144.87,408.52 -1.94,8.94 -15.77,5.69 -13.83,-3.26 32.17,-147.74 83.52,-290.55 152.74,-424.97 0.71,-1.38 1.67,-2.3 2.72,-2.89 -33.91,-138.98 -64.99,-278.64 -93.14,-418.92 l -0.53,1.74 c -36.54,83.14 -86.07,159.37 -147.05,226.64 -6.15,6.8 -16.58,-2.85 -10.44,-9.63 60.21,-66.43 108.87,-141.6 144.94,-223.67 2.55,-5.79 9.31,-4.38 12.04,-0.21 -1.56,-7.78 -3.17,-15.55 -4.72,-23.34 -23.95,-121.07 -45.67,-242.55 -65.37,-364.379 -1.45,-8.98 12.77,-9.332 14.2,-0.402 19.87,122.801 41.99,245.221 66.21,367.231 l 2.47,1.1 c 118.07,82.36 245.27,150.41 379.3,202.91 8.51,3.33 1.77,15.85 -6.67,12.55" /><path
         id="path26"
         style="fill:#f35ca3;fill-opacity:1;fill-rule:nonzero;stroke:none"
         d="m 3694.53,1099.58 c -111.06,230.92 -344.23,416.23 -598.68,446.39 -101.28,12 -210.45,5.43 -297.06,59.25 -11.11,-102.63 23.93,-207 83.81,-291.11 59.88,-84.1 143.11,-149.37 232.61,-200.84 89.04,-51.22 186.95,-90.24 289.35,-98.4 102.39,-8.16 209.81,16.92 289.24,82.04 l 0.73,2.67" /><path
         id="path28"
         style="fill:#393c43;fill-opacity:1;fill-rule:nonzero;stroke:none"
         d="m 3072.94,1242.39 c 35.5,30.45 77.95,50.89 123.66,59.67 -14.45,4.03 -28.81,8.36 -43.02,13.15 -1.06,-0.12 -2.17,0.18 -3.13,1.07 -22.72,7.78 -45.05,16.76 -66.79,27.66 -69.91,35.11 -130.55,85.27 -185.51,140.45 -3.85,3.87 2.65,9.35 6.49,5.49 51.62,-51.83 108.38,-99.22 173.3,-133.51 20.22,-10.69 41.08,-19.79 62.37,-27.73 -28.23,36.62 -46.49,79.73 -53.01,125.75 -0.76,5.41 7.58,7.01 8.35,1.58 6.99,-49.4 27.6,-95 60.07,-132.85 24.01,-8.26 48.49,-15.19 73.22,-21.3 50.08,-12.38 100.56,-22.85 149.79,-38.47 16.97,-5.38 33.87,-11.07 50.67,-17.06 -28.92,29.3 -53.71,62.15 -74.1,98.04 -2.7,4.75 4.99,8.37 7.68,3.64 22.58,-39.76 50.76,-75.59 83.93,-107.03 l 0.98,-1.39 c 19.63,-7.33 39.07,-15.17 58.24,-23.59 1.2,0 2.16,-0.51 2.83,-1.27 30.83,-13.67 60.96,-28.85 89.99,-46.01 75.02,-44.37 141.39,-102.69 186.71,-177.77 2.83,-4.668 -4.86,-8.281 -7.67,-3.64 -62.58,103.66 -163.64,171.63 -272.92,219.88 -50.44,-10.46 -98.2,-30.07 -141.31,-58.33 -4.51,-2.95 -10.06,3.48 -5.49,6.48 41.04,26.9 85.96,46.3 133.56,57.59 -36.65,15.57 -74.07,29.02 -111.16,40.93 -54.45,17.48 -110.69,28.8 -165.87,43.32 -0.54,-0.51 -1.26,-0.88 -2.21,-1.01 -49.87,-6.8 -95.96,-27.45 -134.16,-60.22 -4.14,-3.56 -9.65,2.92 -5.49,6.48" /><path
         id="path30"
         style="fill:#b5c7ea;fill-opacity:1;fill-rule:nonzero;stroke:none"
         d="m 3851.7,1109.46 c -239.63,76.69 -500.34,253.04 -641.5,461.3 -25.25,37.24 -49.13,79.33 -45.71,124.18 3.43,44.85 46.64,88.74 89.84,76.18 35.45,-10.3 55.11,-51.86 90.77,-61.38 54.8,-14.65 96.47,62.06 75.47,114.74 -21.01,52.69 -74.86,82.98 -122.66,113.51 -102.84,65.65 -193.45,150.38 -265.85,248.58 -19.16,25.97 -37.65,54.55 -39.78,86.75 -2.14,32.19 18.14,68.03 50.15,72.02 12.15,1.52 24.55,-1.5 36.8,-4.52 16.19,-4 32.13,-7.99 46.95,-1.52 28.35,12.36 29.3,54.28 13.26,80.73 -16.04,26.44 -42.92,44.66 -60.48,70.12 -52.53,76.18 8.71,193.68 99.17,213.15 90.46,19.47 184.51,-41.25 226.39,-123.77 21.4,-42.17 32.08,-89.57 57.38,-129.52 25.3,-39.95 72.88,-72.29 118.21,-58.81 23.65,7.03 42.26,25.12 64.4,35.99 53.06,26.06 119.97,5.79 162.91,-34.86 42.94,-40.63 66.27,-97.58 83.83,-154.03 105.22,-338.24 -39.55,-1128.84 -39.55,-1128.84" /><path
         id="path32"
         style="fill:#393c43;fill-opacity:1;fill-rule:nonzero;stroke:none"
         d="m 3620.49,2148.89 c -18.76,-115.91 -29.24,-232.9 -31.47,-350.24 -32.43,146.63 -67.47,292.58 -133.37,428.47 -53.34,110.01 -126.19,210.38 -224.18,284.64 -5.05,3.83 -10.23,-4.57 -5.2,-8.39 93.4,-70.77 161.37,-163.23 212.81,-265.5 -57.52,24.21 -115.04,48.42 -172.55,72.63 -5.85,2.46 -8.67,-7 -2.86,-9.45 60.67,-25.53 121.35,-51.07 182.02,-76.61 49.21,-101.45 82.8,-211.89 109.05,-320.09 11.99,-49.41 22.92,-99.28 33.88,-149.21 -0.01,-4.09 -0.1,-8.17 -0.09,-12.25 0.01,-2.69 1.79,-4.3 3.83,-4.78 30.32,-137.88 61.87,-275.76 117.84,-405.04 -65.84,87.31 -142.29,165.71 -228.14,233.83 -4.96,3.93 -10.12,-4.48 -5.19,-8.4 96.64,-76.67 181.54,-166.9 252.19,-268.04 l 1.28,-1.23 c 5.44,-11.19 11.05,-22.32 16.92,-33.35 56.63,-106.42 133.19,-202.14 233.75,-269.911 5.25,-3.547 10.45,4.84 5.18,8.383 -194.92,131.398 -288.73,358.708 -345.21,578.238 -15.57,60.52 -29.05,121.76 -42.5,183.05 0.26,131.62 10.84,262.92 31.87,392.87 1.01,6.26 -8.86,6.58 -9.86,0.38" /><path
         id="path34"
         style="fill:#f35ca3;fill-opacity:1;fill-rule:nonzero;stroke:none"
         d="m 6674.25,2603.45 c -64.09,-5.49 -126.3,-23.7 -182.83,-54.57 -32.41,-17.69 -66.86,-40.1 -95.91,-66.84 9.4,11.63 18.82,23.25 28.35,34.76 51.01,61.63 104.13,121.09 158.26,179.61 53.68,5.86 103.32,43.22 138.9,81.75 48.69,52.75 81.47,120.78 104.13,188.32 2.49,7.42 -7.88,12.13 -11.35,5.54 -118.91,-32.64 -223.98,-137.13 -238.25,-262.72 -59.26,-63 -116.13,-128.37 -170.86,-194.85 15.62,35.83 25.42,73.99 25.13,113.13 -0.48,66.87 -24.62,130.72 -37.29,195.72 -1.32,6.77 -10.37,8.17 -13.32,1.75 -31.7,-68.93 -61.51,-142.74 -73.95,-218.01 -10.75,-65.04 9.14,-115.88 34.57,-173.36 -43.03,-55.1 -84.6,-111.53 -124.43,-169.22 43.53,121.49 -28.56,254.01 -94.65,355.49 -3.44,5.26 -10.83,3.11 -13.26,-1.69 -67.94,-134.06 -4.56,-283.7 81.85,-392.09 -51.6,-76.9 -100.14,-155.91 -145.07,-236.85 11.27,66.22 2.98,138.62 -12.86,201.55 -20.43,81.11 -58.77,154.87 -111.35,219.69 -3.62,4.45 -10.03,3.36 -12.49,-1.6 -37.04,-74.68 -27.71,-158.69 -1.68,-235.32 26.37,-77.63 62.57,-164.85 113.53,-229.97 -22.95,-43.01 -44.79,-86.56 -65.6,-130.57 l 0.66,-0.08 c 4.65,-1.12 8.06,-3.4 10.39,-6.31 19.54,41.37 40.04,82.3 61.48,122.74 l 2.63,1.3 c 1.29,0.96 2.59,1.9 3.88,2.86 154.59,-18.12 313.27,52.62 414.7,168.03 3.33,3.79 0.71,11.57 -4.76,11.54 -144.23,-0.68 -285.41,-61.17 -398.3,-150.06 32.17,58.86 66.24,116.67 102.07,173.31 16.64,26.3 33.66,52.35 51.02,78.18 1.49,-1.09 2.75,-1.95 3.97,-2.73 17.74,-22 47.32,-28.23 74.46,-30.77 34.42,-3.21 70.75,-3.54 104.65,3.81 65.13,14.14 117.71,57.4 167.53,99.17 4.77,4 2.6,10.99 -3.26,12.24 -113.94,24.28 -232.42,3.23 -331.03,-57.68 42.41,62.04 86.79,122.72 132.91,182.05 2.07,-1.16 4.65,-0.7 6.37,0.9 1.65,-1.13 3.76,-1.29 5.74,0.6 1.25,1.17 2.47,2.34 3.71,3.52 127.05,-16.67 256.85,59.78 318.38,168.92 2.55,4.53 -2.45,9.18 -6.77,8.81" /><path
         id="path36"
         style="fill:#c5abdc;fill-opacity:1;fill-rule:nonzero;stroke:none"
         d="M 4488.87,985.121 H 2941.69 c 43.63,61.209 115.13,101.189 196.02,101.189 38.59,0 74.93,-9.31 107.25,-25.45 52.59,119.37 171.88,202.76 310.7,202.76 58.59,0 113.72,-14.85 161.82,-40.98 42.9,138.19 171.76,238.55 324.06,238.55 187.39,0 339.28,-151.89 339.28,-339.27 0,-7.06 -0.28,-14.04 -0.71,-20.99 48.36,-24.79 86.93,-65.8 108.76,-115.809" /><path
         id="path38"
         style="fill:#b5c7ea;fill-opacity:1;fill-rule:nonzero;stroke:none"
         d="m 5836.66,2473.94 h 56.58 c 336.57,0 609.42,-272.84 609.42,-609.4 V 985.121 h -1275.4 v 879.419 c 0,336.56 272.84,609.4 609.4,609.4" /><path
         id="path40"
         style="fill:#f9aa7a;fill-opacity:1;fill-rule:nonzero;stroke:none"
         d="m 4777.64,1411.21 219.36,14.77 c 0,0 -9.67,-57.77 0,-98.86 0,0 19.34,-70.11 -36.26,-74.94 0,0 -60.77,4.83 -82.35,-9.67 0,0 -640.4,-130.53 -1007.82,-125.69 0,0 421.8,233.46 907.07,294.39" /><path
         id="path42"
         style="fill:#fabc95;fill-opacity:1;fill-rule:nonzero;stroke:none"
         d="m 5936.47,2382.84 c -23.55,12.35 -43.52,28.26 -60.63,52.07 -26.85,37.34 -49.45,75.22 -62.96,119.61 -23.55,77.45 -21.69,156.42 -21.32,236.39 0.01,1.48 -28.28,52.1 -50.35,40.87 -20.14,-10.26 -64.38,-21.12 -90.98,-35.7 -35.19,-19.29 -64.34,-70.07 -87.61,-84.74 -15.99,-10.08 -1.2,-47.63 -1.07,-50.02 2.84,-48.65 18.31,-95.35 12.99,-144.67 -2.28,-21.18 -8.67,-41.62 -16.94,-61.18 -6.58,-15.51 -11.09,-31.13 -22.5,-44.02 -10.3,-11.63 -23.34,-19.06 -37.55,-24.21 -4.26,-1.55 -7.04,1.07 -7.67,-5.14 -0.62,-6.18 2.54,-14.56 4.07,-20.53 13.15,-51.49 46.69,-96.66 93.21,-122.66 104.28,-58.1 246.28,-24.89 317.79,69.07 10.93,14.34 20.21,29.92 27.67,46.34 l 0.3,0.89 c 1.37,13.29 1.37,13.29 3.55,27.63" /><path
         id="path44"
         style="fill:#fac0b8;fill-opacity:1;fill-rule:nonzero;stroke:none"
         d="m 5574.54,2516.65 c 0.01,0.11 0.02,0.22 0.04,0.32 -0.02,-0.1 -0.03,-0.21 -0.04,-0.32 m 0.05,0.43 c 0,0.07 0.01,0.15 0.02,0.22 -0.01,-0.08 -0.02,-0.15 -0.02,-0.22 m 0.03,0.33 c 0.01,0.08 0.02,0.16 0.03,0.24 -0.01,-0.08 -0.02,-0.16 -0.03,-0.24 m 0.03,0.31 c 0.01,0.1 0.02,0.2 0.03,0.3 -0.01,-0.1 -0.02,-0.2 -0.03,-0.3 m 0.04,0.32 c 1.42,14.27 1.11,28.32 -0.08,42.26 0.01,0 0.01,0.01 0.02,0.01 1.2,-13.95 1.48,-28 0.06,-42.27 m 225.98,88.22 c -6.96,39.96 -8.83,80.28 -9.21,120.9 0,0 0.01,0.01 0.02,0.02 0.37,-40.59 2.28,-80.86 9.22,-120.78 -0.01,-0.05 -0.02,-0.09 -0.03,-0.14" /><path
         id="path46"
         style="fill:#f8a379;fill-opacity:1;fill-rule:nonzero;stroke:none"
         d="m 5573.74,2454.03 c -5.99,0 -11.42,0.48 -16.14,1.44 8.27,19.56 14.66,40 16.94,61.18 v 0 c 0.01,0.11 0.02,0.22 0.04,0.32 0,0.04 0,0.07 0.01,0.11 0,0.07 0.01,0.14 0.02,0.22 0,0.04 0.01,0.07 0.01,0.11 0.01,0.08 0.02,0.16 0.03,0.24 0,0.02 0,0.05 0,0.07 0.01,0.1 0.02,0.2 0.03,0.3 0,0.01 0,0.01 0.01,0.02 1.42,14.27 1.14,28.32 -0.06,42.27 30.43,11.84 59.22,28.01 86.13,46.99 0.09,0.06 0.17,0.12 0.25,0.17 0.02,0.01 0.04,0.03 0.05,0.04 5.2,3.67 10.33,7.44 15.38,11.32 v 0 c 2.81,2.14 5.59,4.31 8.35,6.5 29.39,23.33 56.55,49.32 82.25,76.65 2,2.12 4.05,4.26 6.13,6.43 5.9,6.1 12.09,12.35 18.29,18.75 0.38,-40.62 2.25,-80.94 9.21,-120.9 -25.55,-94.63 -160.81,-152.23 -226.93,-152.23" /><path
         id="path48"
         style="fill:#f35ca3;fill-opacity:1;fill-rule:nonzero;stroke:none"
         d="m 6124.41,995.969 c -16.77,110.901 -36.49,221.511 -42,333.731 -5.11,104.1 -19.95,219.44 3.24,322.1 0.44,1.99 1.05,3.91 1.55,5.88 5.78,-30.68 11.94,-61.28 17.18,-91.69 5.84,-33.83 13.44,-67.33 19.39,-101.14 2.84,-16.16 5.13,-32.36 6.73,-48.66 1.1,-11.37 3.02,-22.81 2.15,-34.27 -0.51,-6.57 -5.43,-14.34 -2.81,-20.9 3.29,-8.2 13.4,-8.89 20.83,-10.1 11.01,-1.8 22.07,-3.22 33.18,-4.27 22.69,-2.15 45.53,-2.81 68.31,-2.25 45.76,1.15 91.31,7.18 136.18,16.04 19.67,3.88 39.23,8.29 58.78,12.71 4.83,1.1 9.88,2.3 13.58,5.57 7.57,6.69 2.44,18.46 -3.94,24.03 -2.28,1.99 -4.93,3.48 -7.43,5.17 -1.55,1.03 -3.03,2.15 -4.32,3.48 -3.22,3.37 -4.96,7.84 -6.53,12.22 -12.02,33.54 -17.28,67.55 -20.84,102.81 -3.69,36.43 -8.36,72.76 -12.35,109.16 -10.02,87.1 -21.04,174.13 -35.73,260.56 -14.84,87.26 -32.88,173.98 -58.12,258.86 -8.14,27.4 -16.27,55.24 -30,80.48 -9.41,17.32 -20.97,32.27 -37.58,43.01 -17.26,11.15 -36.27,19.31 -55.65,26.02 -67.81,23.49 -138.88,35.96 -206.67,59.46 -2.4,0.83 -4.8,1.68 -7.19,2.55 -18.16,6.57 -34.55,13.77 -49.43,22.86 l 0.11,-0.07 c -48.75,-107.85 -177.54,-167 -279.68,-145.38 -39.69,8.4 -75.56,29.75 -100.09,62.4 -11.04,14.69 -19.48,31.1 -26.99,47.82 -0.38,0.84 -12.59,32.25 -14.07,35.71 6.05,2.37 1.95,0.48 -6.65,-2.63 -1.19,0.18 -2.34,-0.21 -3.43,-1.23 -20.42,-6.82 -42.99,-9.3 -63.39,-12.76 -43.17,-7.29 -87.54,-11.58 -128.82,-27.06 -94.34,-35.39 -141.59,-140.13 -186.07,-223.5 -55.94,-104.83 -104.14,-213.76 -154.2,-321.46 -48.32,-103.95 -88.32,-219.71 -157.24,-312.03 -3.33,-4.46 0.84,-10.58 5.64,-11.45 14.56,-46.39 63.87,-87.17 101.8,-113.76 41.04,-28.77 106.29,-66.07 157.92,-61.85 3.61,0.29 6.69,2.38 8.73,5.14 l 0.33,0.37 c 1.39,2.03 2.2,4.38 2.22,6.7 23.83,96.43 82.46,182 134.68,265.31 25.77,41.13 51.66,82.2 76.48,123.92 17.9,30.09 38.61,61.55 54.05,94.24 6.22,-5.74 12.08,-11.94 17.25,-19.14 15.45,-21.5 24.38,-46.51 29.77,-72.28 10.5,-50.2 8.05,-102.62 5.75,-153.5 -2.75,-61.08 -8.27,-122.06 -16.75,-182.62 -8.34,-59.51 -19.43,-118.65 -33.21,-177.15 -12.78,-54.3 -31.77,-105.28 -47.93,-158.35 267.21,-48.991 541.75,-61.339 823.28,-38.811" /><path
         id="path50"
         style="fill:#b3a5d9;fill-opacity:1;fill-rule:nonzero;stroke:none"
         d="m 6138.88,1353.29 c -1.28,0.23 -2.51,0.78 -3.54,1.57 1.1,-0.63 2.29,-1.15 3.54,-1.57 m -6.25,28.48 c -1.54,52.06 -14.34,103.66 -23.2,154.98 -6.51,37.73 -14.6,75.81 -20.91,113.96 5.39,-28.34 11.02,-56.62 15.86,-84.72 5.84,-33.83 13.44,-67.33 19.39,-101.14 2.84,-16.16 5.13,-32.36 6.73,-48.66 1.1,-11.37 3.02,-22.81 2.15,-34.27 -0.01,-0.05 -0.01,-0.1 -0.02,-0.15 m -59.62,138.96 c 0.01,44.72 3.13,88.96 12.64,131.07 0.15,0.7 0.33,1.4 0.52,2.09 -0.19,-0.69 -0.36,-1.39 -0.52,-2.09 -9.51,-42.11 -12.63,-86.35 -12.64,-131.07 m 14.06,136.47 c 0.05,0.16 0.09,0.32 0.13,0.48 0,-0.01 0,-0.01 0,-0.01 -0.04,-0.16 -0.08,-0.32 -0.13,-0.47" /><path
         id="path52"
         style="fill:#f24d95;fill-opacity:1;fill-rule:nonzero;stroke:none"
         d="m 6109.14,1094.71 h -27.97 c -5.36,18.32 -10.71,36.69 -15.84,55.11 11.94,2.04 23.53,4.05 34.77,6.02 2.87,-20.39 5.92,-40.77 9.04,-61.13 m -80.05,240.54 c -9.26,95.14 -15.19,195.99 -2.81,290.32 4.16,31.66 13.55,60.46 25.02,88.92 0.02,3.16 1.19,5.67 3.07,7.47 5.53,13.3 11.4,26.58 17.4,40.08 22.71,51.16 35.89,104.9 39.5,160.83 6.14,95.62 21.78,201.81 52.59,293.95 1.92,5.73 7.56,8.56 12.95,8.56 6.39,0 12.42,-3.99 11.42,-11.86 -6.59,-51.7 -13.84,-102.12 -15.68,-154.33 -1.68,-47.68 -1.9,-95.29 -6.97,-142.76 -4.94,-46.25 -12.38,-91.78 -29.21,-135.41 -9.12,-23.64 -5.32,-209.41 6.62,-278.49 7,-40.56 34.1,-112.09 2.09,-147.25 -1.34,-1.47 -3.1,-2.11 -4.87,-2.11 -0.41,0 -0.82,0.03 -1.23,0.1 -0.02,0.01 -0.03,0.01 -0.05,0.02 l -0.02,-0.01 c -0.01,0.01 -0.02,0.01 -0.03,0.01 -1.25,0.42 -2.44,0.94 -3.54,1.57 -1.68,1.3 -2.82,3.26 -2.74,5.59 0.24,7.11 0.24,14.23 0.03,21.32 0.01,0.05 0.01,0.1 0.02,0.15 0.87,11.46 -1.05,22.9 -2.15,34.27 -1.6,16.3 -3.89,32.5 -6.73,48.66 -5.95,33.81 -13.55,67.31 -19.39,101.14 -4.84,28.1 -10.47,56.38 -15.86,84.72 -0.41,2.47 -0.81,4.94 -1.21,7.4 -0.03,-0.14 -0.07,-0.29 -0.11,-0.44 0,0 0,0 0,0.01 -0.04,-0.16 -0.08,-0.32 -0.13,-0.48 -0.29,-1.1 -0.61,-2.2 -0.9,-3.31 -0.19,-0.69 -0.37,-1.39 -0.52,-2.09 -9.51,-42.11 -12.63,-86.35 -12.64,-131.07 -0.01,-59.2 5.41,-119.25 8.62,-176.31 0,0 0,-0.01 -0.01,-0.01 v -0.03 c -17.64,-2.91 -35.16,-5.96 -52.53,-9.13" /><path
         id="path54"
         style="fill:#f9b5d2;fill-opacity:1;fill-rule:nonzero;stroke:none"
         d="m 5099.51,1371.66 -0.03,0.08 c 11.33,28.87 25.25,56.85 40.48,84.2 0.05,-0.04 0.11,-0.07 0.16,-0.11 -15.26,-27.33 -29.22,-55.3 -40.61,-84.17 m 123.66,219.8 c 0,0.01 -0.02,0.02 -0.03,0.03 1.37,2.19 2.74,4.38 4.12,6.57 v -0.08 c -1.36,-2.17 -2.73,-4.35 -4.09,-6.52" /><path
         id="path56"
         style="fill:#c18fce;fill-opacity:1;fill-rule:nonzero;stroke:none"
         d="m 5140.12,1455.83 c -0.05,0.04 -0.11,0.07 -0.16,0.11 23.63,42.42 50.45,83.33 75.76,123.72 2.47,3.94 4.95,7.88 7.42,11.83 0.01,-0.01 0.03,-0.02 0.03,-0.03 -4.11,-6.58 -8.23,-13.15 -12.35,-19.73 -23.72,-37.91 -48.57,-76.24 -70.7,-115.9" /><path
         id="path58"
         style="fill:#b3a5d9;fill-opacity:1;fill-rule:nonzero;stroke:none"
         d="m 5227.26,1597.98 v 0.08 c 9.58,15.28 19.15,30.58 28.65,45.91 -9.5,-15.36 -19.07,-30.68 -28.65,-45.99 m 173.77,21.06 c 0,29.38 -1.77,58.73 -7.76,87.36 -5.39,25.77 -14.32,50.78 -29.77,72.28 -1.61,2.24 -3.28,4.38 -5.01,6.44 1.73,-2.06 3.4,-4.2 5.01,-6.44 15.45,-21.5 24.38,-46.51 29.77,-72.28 5.99,-28.63 7.76,-57.98 7.76,-87.36 m -112.66,78.13 c 1.28,2.14 2.56,4.27 3.83,6.41 12.03,20.22 25.33,41.06 37.44,62.47 -12.78,-23.66 -27.73,-46.55 -41.27,-68.88 m 70.1,87.97 c -0.04,0.05 -0.09,0.11 -0.14,0.17 0.05,-0.06 0.1,-0.12 0.14,-0.17" /><path
         id="path60"
         style="fill:#f24d95;fill-opacity:1;fill-rule:nonzero;stroke:none"
         d="m 5332.9,1134.33 c 5.93,19.33 11.46,38.84 16.16,58.8 13.78,58.5 24.87,117.64 33.21,177.15 8.48,60.56 14,121.54 16.75,182.62 0.99,21.86 2,44.01 2.01,66.14 0,29.38 -1.77,58.73 -7.76,87.36 -5.39,25.77 -14.32,50.78 -29.77,72.28 -1.61,2.24 -3.28,4.38 -5.01,6.44 0,0 -0.01,0.01 -0.02,0.02 -0.04,0.05 -0.09,0.11 -0.14,0.17 -4.06,4.82 -8.44,9.21 -13,13.35 -4.56,-11.04 -9.9,-21.9 -15.69,-32.61 -12.11,-21.41 -25.41,-42.25 -37.44,-62.47 -1.27,-2.14 -2.55,-4.27 -3.83,-6.41 -0.69,-1.15 -1.39,-2.3 -2.08,-3.45 -10.01,-16.66 -20.15,-33.22 -30.38,-49.75 -9.5,-15.33 -19.07,-30.63 -28.65,-45.91 -1.38,-2.19 -2.75,-4.38 -4.12,-6.57 -2.47,-3.95 -4.95,-7.89 -7.42,-11.83 -25.31,-40.39 -52.13,-81.3 -75.76,-123.72 -15.23,-27.35 -29.15,-55.33 -40.48,-84.2 l -13.89,39.46 c 20.7,54.38 53.75,106.65 81,151.94 25.78,42.83 134.64,263.97 127.01,269.94 -31.11,24.31 -39.27,54.74 -41.67,94.06 -2.97,48.98 11.45,98.79 22.67,145.95 14.01,58.93 18.1,114.14 20.3,174.31 0.15,4.1 3.05,6.15 6.08,6.15 2.58,0 5.27,-1.48 6.44,-4.46 43.03,-109.07 -6.81,-225.2 14.74,-335.81 11.33,-58.14 72.81,-73.27 105.52,-116.48 24.91,-32.9 36.07,-73.08 41.11,-113.49 13.62,-109.22 -1.8,-226.06 -17.67,-334.29 -8.72,-59.46 -20.19,-118.53 -34.3,-176.95 -0.5,-2.07 -1.08,-4.17 -1.73,-6.29 -33.3,-12.25 -61.01,-23 -82.19,-31.45" /><path
         id="path62"
         style="fill:#fabc95;fill-opacity:1;fill-rule:nonzero;stroke:none"
         d="m 5853.74,2843.57 -129.99,160.1 -124.46,195.78 -71.06,41.99 -194.18,-118.09 -170.57,-182.44 c 0,0 17.64,-89.95 17.65,-91.8 0.16,-80.42 44.76,-160.83 95.82,-220.77 53.35,-62.6 128.3,-95.13 210.74,-88.44 69.96,5.68 133.63,36.73 188.75,78.93 32.62,24.95 62.49,53.25 90.59,83.15 24.38,25.91 56.24,54.36 71.9,86.55 4.18,8.62 14.81,55.04 14.81,55.04" /><path
         id="path64"
         style="fill:#b5c7ea;fill-opacity:1;fill-rule:nonzero;stroke:none"
         d="m 5910.64,2704.2 c 54.62,-64.59 181.87,-39.62 247.27,-10 93.72,42.45 169.73,125.19 207.26,220.62 39.51,100.5 29.16,219.99 -44.22,302.77 -31.85,35.92 -73.82,62.44 -119.42,77.18 -41.93,13.55 -102.79,23.55 -143.04,1.64 -8.11,-4.41 -152.79,-586.38 -147.85,-592.21" /><path
         id="path66"
         style="fill:#393c43;fill-opacity:1;fill-rule:nonzero;stroke:none"
         d="m 5482,2917.99 1.3,-1.46 c 17.22,-17.85 39.93,-29.44 65.04,-29.6 10.97,-0.07 22.07,1.3 32.72,3.89 10.52,2.55 21.91,6.43 29.78,14.21 1.79,1.76 3.95,5.15 3.58,7.79 -0.81,5.85 -10.22,1.43 -13.3,0.36 -29.77,-10.36 -61.62,-11.2 -90.76,1.6 -6.6,2.9 -12.96,6.35 -19.05,10.19 -1.22,0.77 -2.47,1.57 -3.89,1.81 -3.75,0.61 -8.02,-3.43 -6.37,-7.23 l 0.95,-1.56" /><path
         id="path68"
         style="fill:#393c43;fill-opacity:1;fill-rule:nonzero;stroke:none"
         d="m 5479.18,2892.09 c 4.38,-1.38 9.95,2.29 13.81,4.14 2.37,1.14 4.58,2.69 6.89,3.96 3.38,1.84 6.29,3.11 7.55,7.1 1.58,5 -1.34,8.95 -6.18,10.02 -4.56,1 -8.09,-2.13 -11.49,-4.7 -2.68,-2.02 -5.04,-4.1 -7.09,-6.77 -1.71,-2.23 -9.41,-11.88 -3.49,-13.75" /><path
         id="path70"
         style="fill:#393c43;fill-opacity:1;fill-rule:nonzero;stroke:none"
         d="m 5517.27,2863.91 c 4.31,1.57 6.49,7.87 8.42,11.68 1.19,2.35 2,4.94 3.06,7.35 1.56,3.51 3.1,6.29 1.66,10.23 -1.79,4.92 -6.51,6.28 -11.01,4.17 -4.22,-1.98 -5.1,-6.61 -6.25,-10.72 -0.89,-3.23 -1.5,-6.32 -1.5,-9.69 0.01,-2.8 -0.22,-15.15 5.62,-13.02" /><path
         id="path72"
         style="fill:#393c43;fill-opacity:1;fill-rule:nonzero;stroke:none"
         d="m 5568.11,2860.38 c 3.04,3.43 1.96,10.01 1.84,14.29 -0.07,2.63 -0.59,5.28 -0.8,7.91 -0.3,3.84 -0.28,7.01 -3.42,9.79 -3.91,3.48 -8.72,2.42 -11.66,-1.57 -2.78,-3.76 -1.35,-8.25 -0.39,-12.41 0.75,-3.27 1.68,-6.28 3.29,-9.24 1.34,-2.46 7.02,-13.42 11.14,-8.77" /><path
         id="path74"
         style="fill:#393c43;fill-opacity:1;fill-rule:nonzero;stroke:none"
         d="m 5610.06,2874.26 c 1.93,4.16 -0.98,10.16 -2.31,14.23 -0.82,2.5 -2.08,4.89 -3.02,7.35 -1.39,3.59 -2.27,6.63 -6.07,8.41 -4.74,2.21 -9.05,-0.17 -10.73,-4.83 -1.59,-4.4 1.05,-8.29 3.16,-12.01 1.65,-2.91 3.4,-5.53 5.79,-7.91 1.99,-1.98 10.55,-10.87 13.18,-5.24" /><path
         id="path76"
         style="fill:#393c43;fill-opacity:1;fill-rule:nonzero;stroke:none"
         d="m 5218.79,2939.94 1.3,-1.46 c 17.2,-17.86 39.92,-29.44 65.03,-29.6 10.97,-0.07 22.07,1.3 32.73,3.89 10.52,2.55 21.91,6.43 29.78,14.21 1.78,1.76 3.94,5.15 3.58,7.79 -0.81,5.85 -10.22,1.43 -13.31,0.36 -29.77,-10.36 -61.62,-11.2 -90.75,1.6 -6.6,2.9 -12.96,6.35 -19.07,10.19 -1.21,0.77 -2.45,1.57 -3.88,1.8 -3.75,0.62 -8.01,-3.42 -6.37,-7.23 l 0.96,-1.55" /><path
         id="path78"
         style="fill:#393c43;fill-opacity:1;fill-rule:nonzero;stroke:none"
         d="m 5215.97,2914.04 c 4.37,-1.38 9.95,2.29 13.8,4.14 2.37,1.13 4.59,2.69 6.9,3.96 3.38,1.83 6.28,3.11 7.55,7.1 1.58,5 -1.34,8.95 -6.18,10.02 -4.57,1 -8.09,-2.13 -11.5,-4.7 -2.67,-2.02 -5.05,-4.1 -7.1,-6.77 -1.7,-2.23 -9.4,-11.88 -3.47,-13.75" /><path
         id="path80"
         style="fill:#393c43;fill-opacity:1;fill-rule:nonzero;stroke:none"
         d="m 5254.04,2885.85 c 4.32,1.58 6.51,7.88 8.44,11.69 1.18,2.35 1.98,4.93 3.06,7.35 1.56,3.51 3.08,6.29 1.66,10.23 -1.79,4.92 -6.52,6.28 -11.01,4.17 -4.23,-1.98 -5.12,-6.61 -6.25,-10.73 -0.9,-3.22 -1.5,-6.31 -1.5,-9.68 0,-2.81 -0.23,-15.15 5.6,-13.03" /><path
         id="path82"
         style="fill:#393c43;fill-opacity:1;fill-rule:nonzero;stroke:none"
         d="m 5304.89,2882.32 c 3.05,3.44 1.97,10.02 1.85,14.3 -0.07,2.63 -0.6,5.28 -0.81,7.91 -0.3,3.83 -0.29,7.01 -3.41,9.79 -3.93,3.48 -8.72,2.42 -11.67,-1.57 -2.77,-3.77 -1.35,-8.25 -0.39,-12.41 0.75,-3.27 1.69,-6.28 3.3,-9.24 1.34,-2.46 7.01,-13.43 11.13,-8.78" /><path
         id="path84"
         style="fill:#393c43;fill-opacity:1;fill-rule:nonzero;stroke:none"
         d="m 5346.84,2896.21 c 1.94,4.16 -0.98,10.16 -2.31,14.22 -0.82,2.5 -2.08,4.9 -3.03,7.36 -1.37,3.59 -2.26,6.63 -6.06,8.41 -4.75,2.21 -9.04,-0.17 -10.73,-4.83 -1.59,-4.4 1.06,-8.29 3.16,-12.01 1.65,-2.92 3.41,-5.53 5.79,-7.91 1.98,-1.98 10.55,-10.87 13.18,-5.24" /><path
         id="path86"
         style="fill:#f6837e;fill-opacity:1;fill-rule:nonzero;stroke:none"
         d="m 5343.26,2802.51 1.32,-2.25 c 2.67,-4.14 6.67,-7.34 11.03,-9.56 10.13,-5.17 23.32,-7.25 34.53,-5.34 5.14,0.87 13.46,3.24 15.32,8.88 0.61,1.86 0.33,4.06 -0.95,5.54 -1.24,1.44 -3.19,2.05 -5.07,2.33 -6.84,1.04 -13.45,-1.47 -20.25,-1.81 -8.45,-0.43 -17.19,1.07 -24.49,5.5 -2.02,1.22 -4.03,2.68 -6.37,2.99 -3.59,0.48 -6.66,-2.83 -5.07,-6.28" /><path
         id="path88"
         style="fill:#f6837e;fill-opacity:1;fill-rule:nonzero;stroke:none"
         d="m 5682.04,2803.24 c -5.87,5.9 -13.67,10.27 -22.98,12.36 -25.08,5.62 -53.08,-6.61 -64.34,-29.88 -9.29,-19.18 -6.69,-43.31 11.48,-56.25 27.56,-19.64 73.93,-2.82 85.09,28.03 6.23,17.24 2.1,34.33 -9.25,45.74" /><path
         id="path90"
         style="fill:#e7f7f4;fill-opacity:1;fill-rule:nonzero;stroke:none"
         d="m 5552.93,2763.11 c -2.1,-0.04 -4.2,-0.39 -5.91,-0.73 -6.28,-1.25 -12.8,-5.61 -18.67,-8.35 -8.34,-3.89 -16.47,-8.24 -24.95,-11.84 -22.45,-9.5 -44.5,-13.8 -68.82,-15.86 -45.02,-3.81 -83.34,4.2 -125.3,19.74 -12.78,4.73 -5.17,-22.2 -3.74,-26.24 4.54,-12.89 12.1,-24.57 21.27,-34.66 18.86,-20.79 44.66,-35.67 71.75,-42.76 9.2,-2.41 18.67,-3.91 28.19,-4.14 59.78,-1.43 115.92,43.27 133.19,99.55 1.66,5.4 2.76,10.78 2.7,16.47 -0.02,1.86 -0.17,3.8 -1.15,5.38 -1.75,2.81 -5.16,3.53 -8.56,3.44" /><path
         id="path92"
         style="fill:#ebd1e9;fill-opacity:1;fill-rule:nonzero;stroke:none"
         d="m 6019.48,2663.66 v 0 c 0.02,0 0.05,0 0.07,0 -0.02,0 -0.05,0 -0.07,0 m -0.05,0 c -42.92,0 -83.59,10.74 -108.79,40.54 v 0 0 c 25.2,-29.8 65.87,-40.53 108.79,-40.54 m -108.8,40.55 c 0,0 0,0.01 -0.01,0.01 0.01,0 0.01,-0.01 0.01,-0.01 m -0.01,0.02 v 0 0 m 15.68,76.23 c 5.28,22.86 11.65,49.72 18.69,78.96 v 0 c -7.04,-29.25 -13.4,-56.1 -18.69,-78.96" /><path
         id="path94"
         style="fill:#aabde6;fill-opacity:1;fill-rule:nonzero;stroke:none"
         d="m 6019.48,2663.66 c -0.02,0 -0.03,0 -0.05,0 -42.92,0.01 -83.59,10.74 -108.79,40.54 v 0 c -0.01,0.01 -0.01,0.01 -0.01,0.01 0,0 0,0.01 -0.01,0.01 0,0 0,0 0,0.01 v 0 c -1,1.62 5.25,31.15 15.68,76.23 5.29,22.86 11.65,49.71 18.69,78.96 4.85,-0.71 8.6,-1.11 10.96,-1.11 0.96,0 1.68,0.06 2.16,0.2 0.05,0.01 0.1,0.03 0.14,0.04 v 0 c 81.27,28.27 130.01,128.46 145.43,207.26 11.44,58.44 10.58,120.68 -4.1,178.95 -4.75,20.5 -10.89,40.67 -18.35,60.3 8.79,2.22 18.09,3.46 27.6,3.92 0.01,0 0.02,0 0.02,0 9.71,0 116.01,-246.5 2.34,-475.58 14,-1.69 27.65,-2.51 40.96,-2.51 82.61,0 152.08,31.66 213.02,83.93 -37.53,-95.43 -113.54,-178.17 -207.26,-220.62 v 0 c -35.2,-15.94 -88.3,-30.53 -138.36,-30.54 -0.02,0 -0.05,0 -0.07,0" /><path
         id="path96"
         style="fill:#b5c7ea;fill-opacity:1;fill-rule:nonzero;stroke:none"
         d="m 6072.91,3325.51 c -36.68,84.37 -103.56,157.12 -194.54,181.31 -74.82,19.89 -175.59,24.93 -242.14,-21.42 -58.39,66.02 -158.57,86.48 -243.59,77.5 -96.65,-10.2 -185.58,-60.94 -248.75,-134.08 -157.11,-181.88 -114.81,-445 40.35,-614.29 11.48,-12.53 10.31,29.28 10.97,34.02 2.48,17.55 7.83,34.7 15.65,50.6 21.38,43.48 59.76,75.94 98.82,104.59 79.59,58.35 169.46,109.46 221.2,193.5 10.03,-130.65 101.84,-251.84 225.41,-295.46 5.06,-1.78 190.59,-47.18 201.96,-43.23 81.27,28.27 130.01,128.46 145.43,207.26 17.01,86.94 4.43,178.77 -30.77,259.7" /><path
         id="path98"
         style="fill:#ebd1e9;fill-opacity:1;fill-rule:nonzero;stroke:none"
         d="m 5183.73,2815.09 c -0.04,0.04 -0.08,0.08 -0.12,0.13 0.04,-0.05 0.08,-0.09 0.12,-0.13 m -0.51,0.56 c -0.05,0.05 -0.09,0.1 -0.14,0.15 0.05,-0.06 0.09,-0.1 0.14,-0.15 m -0.52,0.57 c -0.04,0.04 -0.09,0.09 -0.12,0.13 0.04,-0.05 0.07,-0.08 0.12,-0.13 m -0.55,0.6 c -0.02,0.03 -0.06,0.06 -0.08,0.09 0.03,-0.03 0.05,-0.06 0.08,-0.09 m -2.18,2.43 h -0.01 0.01" /><path
         id="path100"
         style="fill:#aabde6;fill-opacity:1;fill-rule:nonzero;stroke:none"
         d="m 6103.68,3065.81 c 0.03,0.17 0.06,0.33 0.1,0.49 -0.04,-0.16 -0.07,-0.32 -0.1,-0.49 m 0.12,0.61 c 0.02,0.13 0.05,0.26 0.07,0.38 -0.02,-0.12 -0.05,-0.25 -0.07,-0.38 m 0.1,0.51 c 0.02,0.12 0.04,0.24 0.07,0.37 -0.02,-0.13 -0.05,-0.25 -0.07,-0.37 m 0.1,0.51 c 0.02,0.12 0.04,0.23 0.06,0.35 -0.02,-0.12 -0.04,-0.23 -0.06,-0.35 m 0.09,0.51 c 0.02,0.12 0.05,0.22 0.07,0.34 -0.02,-0.12 -0.05,-0.22 -0.07,-0.34 m 0.1,0.49 c 0.02,0.11 0.04,0.22 0.06,0.34 -0.02,-0.12 -0.04,-0.23 -0.06,-0.34 m 0.09,0.51 c 0.02,0.11 0.04,0.22 0.06,0.33 -0.02,-0.11 -0.04,-0.22 -0.06,-0.33 m 0.09,0.49 c 0.02,0.1 0.04,0.2 0.06,0.3 -0.02,-0.1 -0.04,-0.2 -0.06,-0.3 m 0.1,0.52 c 0.01,0.08 0.03,0.18 0.05,0.26 -0.02,-0.09 -0.03,-0.17 -0.05,-0.26 m 0.09,0.48 c 0.01,0.08 0.03,0.17 0.04,0.25 -0.01,-0.08 -0.03,-0.16 -0.04,-0.25 m 0.09,0.51 c 0,0.01 0.01,0.03 0.01,0.05 0,-0.02 -0.01,-0.03 -0.01,-0.05 m 0.42,2.33 c 0,0.01 0,0.01 0,0.02 0,-0.01 0,-0.01 0,-0.02" /><path
         id="path102"
         style="fill:#9eb2e1;fill-opacity:1;fill-rule:nonzero;stroke:none"
         d="m 5958.25,2858.55 v 0 0 c 81.27,28.27 130.01,128.46 145.43,207.26 v 0 c 0.03,0.17 0.06,0.33 0.1,0.49 0,0.04 0.01,0.08 0.02,0.12 0.02,0.13 0.05,0.26 0.07,0.38 0.01,0.05 0.02,0.09 0.03,0.13 0.02,0.12 0.05,0.24 0.07,0.37 0.01,0.04 0.02,0.09 0.03,0.14 0.02,0.12 0.04,0.23 0.06,0.35 0.01,0.05 0.02,0.11 0.03,0.16 0.02,0.12 0.05,0.22 0.07,0.34 0.01,0.05 0.02,0.1 0.03,0.15 0.02,0.11 0.04,0.22 0.06,0.34 0.01,0.05 0.02,0.11 0.03,0.17 0.02,0.11 0.04,0.22 0.06,0.33 0.01,0.05 0.02,0.11 0.03,0.16 0.02,0.1 0.04,0.2 0.06,0.3 0.01,0.08 0.03,0.14 0.04,0.22 0.02,0.09 0.03,0.17 0.05,0.26 0.01,0.08 0.02,0.15 0.04,0.22 0.01,0.09 0.03,0.17 0.04,0.25 0.02,0.09 0.03,0.17 0.05,0.26 0,0.02 0.01,0.03 0.01,0.05 0.14,0.76 0.27,1.52 0.41,2.28 0,0.01 0,0.01 0,0.02 9.97,56.72 7.49,115.32 -5.49,171.46 14.68,-58.27 15.54,-120.51 4.1,-178.95 -15.42,-78.8 -64.16,-178.99 -145.43,-207.26 v 0" /><path
         id="path104"
         style="fill:#aabde6;fill-opacity:1;fill-rule:nonzero;stroke:none"
         d="m 5188.09,2812.2 c -1.09,0 -2.37,0.71 -3.85,2.33 v 0 c -0.17,0.18 -0.34,0.37 -0.51,0.56 -0.04,0.04 -0.08,0.08 -0.12,0.13 -0.13,0.14 -0.26,0.28 -0.39,0.43 -0.05,0.05 -0.09,0.09 -0.14,0.15 -0.13,0.14 -0.25,0.28 -0.38,0.42 -0.05,0.05 -0.08,0.08 -0.12,0.13 -0.15,0.16 -0.29,0.31 -0.43,0.47 -0.03,0.03 -0.05,0.06 -0.08,0.09 -0.7,0.78 -1.4,1.55 -2.1,2.34 h -0.01 c -89.11,99.57 -139.67,230.39 -134.65,357.92 14.36,-39.87 33.58,-77.97 56.9,-113.35 13.72,-20.8 28.2,-41.02 45.86,-58.69 0.48,-0.48 1.22,-0.71 2.22,-0.71 31.24,0.02 312.02,227.32 402.35,374.11 -6.8,-11.03 8.37,-53.02 11.8,-64.93 6.1,-21.18 14.29,-41.75 24.31,-61.37 55.71,-109.16 119.02,-172.58 235.68,-196.72 21.95,-4.54 44.71,-7.81 67.15,-7.81 22.97,0 45.62,3.43 66.72,12.46 43.33,18.54 74.44,58.73 92.3,102.35 17.85,43.62 24.07,90.97 30.14,137.7 7.79,-17.88 14.05,-36.45 18.84,-55.45 12.98,-56.14 15.46,-114.74 5.49,-171.46 0,-0.01 0,-0.01 0,-0.02 -0.14,-0.76 -0.27,-1.52 -0.41,-2.28 0,-0.02 -0.01,-0.04 -0.01,-0.05 -0.02,-0.09 -0.03,-0.17 -0.05,-0.26 -0.01,-0.08 -0.03,-0.17 -0.04,-0.25 -0.02,-0.07 -0.03,-0.14 -0.04,-0.22 -0.02,-0.08 -0.04,-0.18 -0.05,-0.26 -0.01,-0.08 -0.03,-0.14 -0.04,-0.22 -0.02,-0.1 -0.04,-0.2 -0.06,-0.3 -0.01,-0.05 -0.02,-0.11 -0.03,-0.16 -0.02,-0.11 -0.04,-0.22 -0.06,-0.33 -0.01,-0.06 -0.02,-0.12 -0.03,-0.17 -0.02,-0.12 -0.04,-0.23 -0.06,-0.34 -0.01,-0.05 -0.02,-0.1 -0.03,-0.15 -0.02,-0.12 -0.05,-0.22 -0.07,-0.34 -0.01,-0.05 -0.02,-0.11 -0.03,-0.16 -0.02,-0.12 -0.04,-0.23 -0.06,-0.35 -0.01,-0.05 -0.02,-0.1 -0.03,-0.14 -0.03,-0.13 -0.05,-0.25 -0.07,-0.37 -0.01,-0.04 -0.02,-0.08 -0.03,-0.13 -0.02,-0.12 -0.05,-0.25 -0.07,-0.38 -0.01,-0.04 -0.02,-0.08 -0.02,-0.12 -0.04,-0.16 -0.07,-0.32 -0.1,-0.49 v 0 c -15.42,-78.8 -64.16,-178.99 -145.43,-207.26 v 0 c -0.47,-0.16 -1.25,-0.24 -2.3,-0.24 -14.79,0 -84.1,15.56 -136.97,28.07 -33.75,7.99 -60.8,14.73 -62.69,15.4 -123.57,43.62 -215.38,164.81 -225.41,295.46 -51.74,-84.04 -141.61,-135.15 -221.2,-193.5 -25.48,-18.69 -50.66,-38.99 -71.03,-62.92 -10.86,-12.76 -20.36,-26.54 -27.79,-41.67 -7.82,-15.9 -13.17,-33.05 -15.65,-50.6 -0.57,-4.12 0.24,-36.35 -7.12,-36.35" /><path
         id="path106"
         style="fill:#393c43;fill-opacity:1;fill-rule:nonzero;stroke:none"
         d="m 5515.11,2454.98 c 39.86,4.25 80.59,27.07 115.82,45.2 38.82,19.98 75.36,43.8 107.86,73.02 31.37,28.21 59.32,60.17 83.61,94.64 21.25,30.14 52.34,70.65 52.18,108.94 -0.03,7.32 -8.99,10.79 -14.17,5.87 -24.62,-23.39 -36.06,-61.52 -55.01,-89.93 -24.47,-36.68 -53.73,-70.14 -86.45,-99.68 -32.38,-29.23 -68.82,-52.57 -107.5,-72.51 -33.17,-17.09 -73.05,-29.41 -100.83,-54.68 -3.85,-3.5 -1.04,-11.46 4.49,-10.87" /><path
         id="path108"
         style="fill:#393c43;fill-opacity:1;fill-rule:nonzero;stroke:none"
         d="m 5584.38,2483.06 c 3.35,-25.46 -24.95,-50.17 -63.21,-55.2 -38.26,-5.03 -71.99,11.53 -75.33,36.98 -3.35,25.46 24.95,50.17 63.21,55.2 38.26,5.03 71.99,-11.53 75.33,-36.98" /><path
         id="path110"
         style="fill:#393c43;fill-opacity:1;fill-rule:nonzero;stroke:none"
         d="m 5902.2,2977.79 c 8.84,92.97 -2,167.03 -21.76,225.29 -49.52,146.04 -195.49,239.76 -348.76,222.78 -156.1,-17.3 -236.99,-138.01 -236.99,-138.01 v -0.49 c 0,0 7.06,5.26 19.99,12.77 202.2,117.4 458.64,-11.49 488.68,-243.37 2.38,-18.36 4.32,-38.12 5.68,-59.38 v -40.67 l 93.16,21.08" /><path
         id="path112"
         style="fill:#f35ca3;fill-opacity:1;fill-rule:nonzero;stroke:none"
         d="m 6000.91,2843.57 c 0,-88.42 -65.89,-160.1 -147.17,-160.1 -81.29,0 -147.18,71.68 -147.18,160.1 0,88.42 65.89,160.1 147.18,160.1 81.28,0 147.17,-71.68 147.17,-160.1" /><path
         id="path114"
         style="fill:#393c43;fill-opacity:1;fill-rule:nonzero;stroke:none"
         d="m 5954.57,2843.57 c 0,-60.58 -45.15,-109.69 -100.83,-109.69 -55.69,0 -100.84,49.11 -100.84,109.69 0,60.58 45.15,109.69 100.84,109.69 55.68,0 100.83,-49.11 100.83,-109.69" /><path
         id="path116"
         style="fill:#fabc95;fill-opacity:1;fill-rule:nonzero;stroke:none"
         d="m 6411.09,1276.36 c -0.54,2.31 -1.01,4.69 -1.43,7.11 l -0.36,2.11 c -0.3,1.84 -0.57,3.7 -0.8,5.57 l -0.26,2 c -0.28,2.49 -0.54,4.98 -0.73,7.5 l -0.04,0.56 c -0.18,2.35 -0.3,4.71 -0.41,7.06 l -0.08,2.16 c -0.07,1.96 -0.11,3.91 -0.15,5.86 l -0.02,1.81 c -0.02,2.5 -0.01,4.97 0.04,7.4 l 0.02,1.06 c 0.04,2.08 0.1,4.13 0.18,6.15 l 0.09,2.12 c 0.08,1.74 0.16,3.44 0.26,5.11 l 0.1,1.81 c 0.14,2.11 0.28,4.17 0.44,6.14 l 0.16,1.84 c 0.11,1.35 0.23,2.68 0.35,3.96 l 0.22,2.33 c 0.11,1.03 0.21,2.01 0.31,2.96 l 0.23,2.16 c 0.15,1.31 0.29,2.55 0.44,3.7 l 0.01,0.05 c -7.1,-1.51 -14.2,-3.05 -21.32,-4.45 -44.87,-8.86 -90.42,-14.89 -136.18,-16.04 -22.78,-0.56 -45.62,0.1 -68.31,2.25 -11.11,1.05 -22.17,2.47 -33.18,4.27 -3.65,0.59 -7.94,1.07 -11.74,2.37 l -0.03,-0.01 c -18.09,-2.62 -36.05,-5.42 -53.9,-8.34 -1.12,-0.18 -2.27,-0.34 -3.38,-0.53 v -0.03 c -437.22,-72.14 -796.96,-229.99 -796.96,-229.99 -103.95,91.86 -362.59,-9.66 -362.59,-9.66 v -38.81 l 362.59,0.13 c 240.23,-3.16 597.14,51.55 815.47,89.8 l 0.17,0.04 c 2.48,0.43 4.93,0.86 7.39,1.29 1.87,0.33 3.74,0.66 5.6,0.99 2.57,0.45 5.13,0.9 7.65,1.35 1.1,0.2 2.18,0.39 3.27,0.59 5.03,0.88 9.96,1.77 14.81,2.64 1.32,0.24 2.64,0.47 3.95,0.71 2.58,0.47 5.13,0.92 7.65,1.38 0.97,0.18 1.93,0.35 2.91,0.53 4.94,0.89 9.78,1.77 14.51,2.64 l 2.6,0.48 c 2.57,0.46 5.11,0.93 7.61,1.39 l 2.13,0.39 c 8.06,1.49 15.76,2.91 23.07,4.28 l 1.34,0.25 c 7.12,1.33 13.86,2.6 20.22,3.8 l 2.43,0.47 c 1.93,0.36 3.84,0.72 5.69,1.08 l 0.24,0.04 c 3.92,0.76 7.66,1.47 11.23,2.15 l 1.92,0.37 c 1.59,0.32 3.16,0.61 4.67,0.9 l 1.66,0.32 c 4.95,0.96 9.49,1.85 13.57,2.65 l 1.29,0.25 c 2.37,0.46 4.57,0.89 6.62,1.3 l 0.92,0.18 c 0.95,0.18 1.85,0.37 2.73,0.54 l 1.47,0.29 c 2.51,0.5 4.65,0.93 6.45,1.29 l 2.08,0.41 0.75,0.16 0.66,0.12 c 1.37,0.28 2.3,0.47 2.75,0.56 l 0.33,0.07 c 21.58,14.5 82.36,9.66 82.36,9.66 55.6,4.84 36.26,74.95 36.26,74.95" /><path
         id="path118"
         style="fill:#f35ca3;fill-opacity:1;fill-rule:nonzero;stroke:none"
         d="m 6453.02,3775.11 c 0,132.35 -122.37,239.64 -273.31,239.64 -150.94,0 -273.3,-107.29 -273.3,-239.64 0,-132.35 122.36,-239.65 273.3,-239.65 13.45,0 26.67,0.89 39.61,2.54 -9.08,-59.09 -39.61,-86.48 -39.61,-86.48 273.31,83.94 273.31,290.97 273.31,323.59" /><path
         id="path120"
         style="fill:#ffffff;fill-opacity:1;fill-rule:nonzero;stroke:none"
         d="m 6076.88,3781.1 c 0,-28.35 -22.98,-51.33 -51.33,-51.33 -28.35,0 -51.33,22.98 -51.33,51.33 0,28.35 22.98,51.33 51.33,51.33 28.35,0 51.33,-22.98 51.33,-51.33" /><path
         id="path122"
         style="fill:#ffffff;fill-opacity:1;fill-rule:nonzero;stroke:none"
         d="m 6223.15,3781.1 c 0,-28.35 -22.97,-51.33 -51.32,-51.33 -28.34,0 -51.33,22.98 -51.33,51.33 0,28.35 22.99,51.33 51.33,51.33 28.35,0 51.32,-22.98 51.32,-51.33" /><path
         id="path124"
         style="fill:#ffffff;fill-opacity:1;fill-rule:nonzero;stroke:none"
         d="m 6369.44,3781.1 c 0,-28.35 -22.98,-51.33 -51.32,-51.33 -28.35,0 -51.33,22.98 -51.33,51.33 0,28.35 22.98,51.33 51.33,51.33 28.34,0 51.32,-22.98 51.32,-51.33" /><path
         id="path126"
         style="fill:#f35ca3;fill-opacity:1;fill-rule:nonzero;stroke:none"
         d="m 4015.68,2810.16 c 0,132.35 -122.36,239.64 -273.3,239.64 -150.94,0 -273.31,-107.29 -273.31,-239.64 0,-132.36 122.37,-239.65 273.31,-239.65 13.45,0 26.67,0.89 39.6,2.54 -9.06,-59.1 -39.6,-86.49 -39.6,-86.49 273.3,83.95 273.3,290.98 273.3,323.6" /><path
         id="path128"
         style="fill:#ffffff;fill-opacity:1;fill-rule:nonzero;stroke:none"
         d="m 3698.21,2740.43 c 0,20.88 16.82,36.77 41.13,36.77 24.3,0 41.13,-15.89 41.13,-36.77 0,-20.57 -16.83,-37.39 -41.13,-37.39 -24.31,0 -41.13,16.82 -41.13,37.39 z m 49.23,117.16 c 0,9.66 -9.34,14.65 -20.87,14.65 -13.41,0 -25.87,-8.11 -32.41,-21.2 l -55.46,27.74 c 15.88,29.91 47.36,50.48 97.21,50.48 48.92,0 85.38,-20.57 85.38,-59.52 0,-47.67 -49.85,-56.08 -49.85,-80.08 h -64.19 c 0,37.71 40.19,48.92 40.19,67.93" /><path
         id="path130"
         style="fill:#b5c7ea;fill-opacity:1;fill-rule:nonzero;stroke:none"
         d="m 4751.99,3425.95 c 0,132.35 -122.36,239.64 -273.31,239.64 -150.95,0 -273.31,-107.29 -273.31,-239.64 0,-132.36 122.36,-239.65 273.31,-239.65 13.46,0 26.67,0.89 39.61,2.54 -9.07,-59.1 -39.61,-86.49 -39.61,-86.49 273.31,83.95 273.31,290.98 273.31,323.6" /><path
         id="path132"
         style="fill:#ffffff;fill-opacity:1;fill-rule:nonzero;stroke:none"
         d="m 4308.26,3346.21 h 340.84 c 14.7,0 26.61,11.91 26.61,26.61 0,14.7 -11.91,26.61 -26.61,26.61 h -340.84 c -14.7,0 -26.61,-11.91 -26.61,-26.61 0,-14.7 11.91,-26.61 26.61,-26.61" /><path
         id="path134"
         style="fill:#ffffff;fill-opacity:1;fill-rule:nonzero;stroke:none"
         d="m 4308.26,3440.48 h 340.84 c 14.7,0 26.61,11.92 26.61,26.61 0,14.7 -11.91,26.62 -26.61,26.62 h -340.84 c -14.7,0 -26.61,-11.92 -26.61,-26.62 0,-14.69 11.91,-26.61 26.61,-26.61" /><path
         id="path136"
         style="fill:#f35ca3;fill-opacity:1;fill-rule:nonzero;stroke:none"
         d="m 6987.18,1374.84 c -128.77,41.21 -268.88,135.98 -344.74,247.9 -13.56,20.01 -26.4,42.63 -24.56,66.73 1.84,24.1 25.07,47.69 48.28,40.94 19.04,-5.54 29.62,-27.87 48.78,-32.99 29.44,-7.87 51.84,33.35 40.55,61.67 -11.28,28.31 -40.23,44.59 -65.91,60.99 -55.26,35.28 -103.96,80.82 -142.87,133.58 -10.28,13.96 -20.23,29.32 -21.37,46.62 -1.15,17.3 9.75,36.57 26.94,38.71 6.53,0.82 13.19,-0.81 19.78,-2.43 8.7,-2.15 17.27,-4.29 25.24,-0.82 15.23,6.64 15.74,29.17 7.12,43.38 -8.62,14.21 -23.06,24 -32.5,37.69 -28.23,40.93 4.68,104.08 53.29,114.54 48.62,10.47 99.16,-22.17 121.65,-66.51 11.51,-22.66 17.25,-48.14 30.85,-69.61 13.59,-21.47 39.16,-38.83 63.52,-31.6 12.7,3.78 22.7,13.5 34.61,19.34 28.51,14 64.47,3.11 87.55,-18.73 23.06,-21.84 35.6,-52.43 45.05,-82.78 56.53,-181.76 -21.26,-606.62 -21.26,-606.62" /><path
         id="path138"
         style="fill:#393c43;fill-opacity:1;fill-rule:nonzero;stroke:none"
         d="m 6862.93,1933.42 c -10.08,-62.3 -15.71,-125.17 -16.91,-188.22 -17.44,78.8 -36.25,157.23 -71.67,230.26 -28.67,59.11 -67.82,113.06 -120.47,152.96 -2.72,2.06 -5.5,-2.45 -2.8,-4.51 50.19,-38.03 86.72,-87.72 114.36,-142.67 -30.91,13.01 -61.82,26.02 -92.73,39.02 -3.13,1.32 -4.65,-3.76 -1.53,-5.08 32.61,-13.72 65.21,-27.44 97.81,-41.17 26.45,-54.51 44.5,-113.85 58.61,-172 6.44,-26.56 12.31,-53.36 18.2,-80.18 0,-2.2 -0.05,-4.4 -0.05,-6.6 0.01,-1.43 0.97,-2.3 2.06,-2.57 16.3,-74.08 33.25,-148.18 63.32,-217.66 -35.37,46.92 -76.45,89.05 -122.59,125.66 -2.66,2.12 -5.44,-2.4 -2.79,-4.51 51.93,-41.2 97.56,-89.69 135.52,-144.04 l 0.69,-0.67 c 2.92,-6 5.94,-11.99 9.09,-17.92 30.43,-57.18 71.58,-108.62 125.61,-145.04 2.83,-1.91 5.62,2.6 2.79,4.51 -104.75,70.6 -155.16,192.75 -185.52,310.73 -8.35,32.53 -15.6,65.44 -22.83,98.37 0.14,70.73 5.82,141.3 17.12,211.12 0.55,3.37 -4.75,3.54 -5.29,0.21" /><path
         id="path140"
         style="fill:#b5c7ea;fill-opacity:1;fill-rule:nonzero;stroke:none"
         d="m 7000.68,1478.76 c -53,63.49 -92.13,138.49 -113.91,218.27 -6.36,23.29 -11.16,48.56 -2.58,71.13 8.58,22.56 35.44,39.67 57.36,29.57 13.17,-6.07 20.88,-19.6 30.53,-30.41 9.66,-10.81 25.47,-19.64 38.16,-12.64 18.13,9.99 10.17,37.32 0.72,55.74 -34.85,67.81 -58.3,141.46 -69.11,216.93 -3.18,22.22 -5.07,45.85 4.39,66.19 9.46,20.35 34.12,35.25 54.78,26.49 14.87,-6.32 23.07,-22.26 28.33,-37.54 5.26,-15.29 9.12,-31.75 19.81,-43.88 10.68,-12.13 31.28,-17.55 42.85,-6.27 9.41,9.16 8.64,24.31 6.47,37.25 -11.43,67.74 -43.3,135.39 -27.72,202.29 15.68,67.34 84.05,118.22 153.06,113.9 69,-4.32 130.51,-63.31 137.68,-132.08 12.3,-117.78 -113.86,-211.19 -117.73,-329.56 18.14,15.36 36.76,31.01 58.97,39.46 22.22,8.46 49.12,8.52 68.02,-5.92 23.17,-17.68 27.57,-52.45 17.27,-79.71 -10.31,-27.27 -32.16,-48.4 -54.61,-67 -22.44,-18.59 -46.49,-35.98 -63.77,-59.46 -6.22,-8.45 -11.63,-19.65 -7.01,-29.08 6,-12.25 23.08,-11.96 36.1,-16.08 27.04,-8.56 39.73,-42.13 33.57,-69.83 -6.15,-27.68 -26.25,-50.06 -47.37,-69 -69.18,-62.02 -155.56,-100.84 -240.43,-138.69 l -43.83,49.93" /><path
         id="path142"
         style="fill:#393c43;fill-opacity:1;fill-rule:nonzero;stroke:none"
         d="m 7242.19,1664.91 c -70.41,-27.58 -137.3,-63.16 -199.53,-106.09 16.08,80.23 33.91,160.12 53.49,239.57 19.88,22.44 55.56,31.25 81.98,41.93 35.38,14.32 70.76,28.62 106.15,42.94 4.55,1.85 0.92,8.57 -3.59,6.74 -38.46,-15.56 -76.92,-31.11 -115.38,-46.67 -21.67,-8.77 -47.07,-16.25 -65.78,-31.33 16.84,67.57 34.9,134.82 54.24,201.72 25.19,33.32 54.33,63.12 87.04,89.11 3.86,3.06 -1.36,8.65 -5.18,5.62 -28.1,-22.35 -53.51,-47.54 -76.18,-75.25 1.49,5.05 2.93,10.11 4.43,15.15 18.96,64.06 39.12,127.76 60.35,191.11 1.56,4.66 -5.74,6.9 -7.31,2.24 -16.77,-50.06 -32.8,-100.35 -48.16,-150.85 -3.17,36.5 -10.23,72.46 -21.28,107.51 -1.46,4.66 -8.92,2.95 -7.43,-1.76 12.81,-40.64 20.37,-82.49 22.44,-125.08 l 0.13,-0.86 c -5.34,-17.76 -10.56,-35.56 -15.72,-53.39 l -1.13,-1.46 c -0.96,-1.28 -0.91,-2.57 -0.32,-3.59 -20.12,-69.75 -38.9,-139.89 -56.29,-210.36 l -1.74,-2.08 c -35.1,69.64 -61.25,143.31 -77.85,219.55 -1.05,4.79 -8.48,3.04 -7.43,-1.76 17.28,-79.4 44.88,-156.14 82.08,-228.38 l 1.46,-1.55 c -18.23,-74.68 -34.93,-149.74 -50.05,-225.12 l -0.29,0.94 c -19.64,44.67 -46.25,85.64 -79.02,121.79 -3.3,3.64 -8.91,-1.54 -5.61,-5.17 32.36,-35.71 58.5,-76.1 77.89,-120.21 1.37,-3.1 5,-2.35 6.47,-0.11 -0.84,-4.17 -1.71,-8.35 -2.53,-12.54 -12.87,-65.06 -24.55,-130.35 -35.14,-195.81 -0.78,-4.83 6.87,-5.01 7.64,-0.22 10.67,66 22.56,131.79 35.57,197.35 l 1.33,0.59 c 63.45,44.26 131.8,80.83 203.83,109.03 4.58,1.8 0.95,8.53 -3.58,6.75" /><path
         id="path144"
         style="fill:#c5abdc;fill-opacity:1;fill-rule:nonzero;stroke:none"
         d="m 6959,1507.23 h -300.94 l 137.78,-522.109 h 326.33 l 137.78,522.109 H 6959" /><path
         id="path146"
         style="fill:#c5abdc;fill-opacity:1;fill-rule:nonzero;stroke:none"
         d="m 6610.47,1347.69 h 697.07 v 159.539 h -697.07 z" /><path
         id="path148"
         style="fill:#ac93d0;fill-opacity:1;fill-rule:nonzero;stroke:none"
         d="m 7307.54,1347.69 h -697.07 v 159.54 h 697.07 v -159.54" /><path
         id="path150"
         style="fill:#c5abdc;fill-opacity:1;fill-rule:nonzero;stroke:none"
         d="M 5235.6,985.121 H 3804.59 L 3442.01,2014.96 H 4873.02 L 5235.6,985.121" /><path
         id="path152"
         style="fill:#ac93d0;fill-opacity:1;fill-rule:nonzero;stroke:none"
         d="m 5235.6,985.121 h -71.81 l -0.35,0.969 h 71.82 l 0.34,-0.969 m -38.58,109.589 h -71.82 l -324,920.25 H 3442.01 4873.02 l 324,-920.25" /><path
         id="path154"
         style="fill:#c5abdc;fill-opacity:1;fill-rule:nonzero;stroke:none"
         d="m 4676.69,986.09 h 1510.84 v 108.621 H 4676.69 Z" /><path
         id="path156"
         style="fill:#ac93d0;fill-opacity:1;fill-rule:nonzero;stroke:none"
         d="M 6187.53,986.09 H 5163.44 l -38.24,108.62 H 6187.53 V 986.09" /><path
         id="path158"
         style="fill:#c5abdc;fill-opacity:1;fill-rule:nonzero;stroke:none"
         d="M 5163.79,985.121 H 3732.78 L 3370.19,2014.96 H 4801.2 L 5163.79,985.121" /><path
         id="path160"
         style="fill:#ac93d0;fill-opacity:1;fill-rule:nonzero;stroke:none"
         d="M 5163.79,985.121 H 3732.78 l -362.59,1029.839 780.02,-447.87 c -11.36,-19.74 -17.86,-42.64 -17.86,-67.05 0,-74.37 60.28,-134.65 134.64,-134.65 49.95,0 93.55,27.2 116.79,67.59 l 780.01,-447.859" /><path
         id="path162"
         style="fill:#e4d2ec;fill-opacity:1;fill-rule:nonzero;stroke:none"
         d="m 4383.78,1432.98 -233.57,134.11 c 23.24,40.39 66.83,67.59 116.78,67.59 74.37,0 134.65,-60.29 134.65,-134.64 0,-24.42 -6.5,-47.31 -17.86,-67.06" /><path
         id="path164"
         style="fill:#d9c4e6;fill-opacity:1;fill-rule:nonzero;stroke:none"
         d="m 4266.99,1365.39 c -74.36,0 -134.64,60.28 -134.64,134.65 0,24.41 6.5,47.31 17.86,67.05 l 233.57,-134.11 c -23.24,-40.39 -66.84,-67.59 -116.79,-67.59" /><path
         id="path166"
         style="fill:#f24c92;fill-opacity:1;fill-rule:nonzero;stroke:none"
         d="M 7500,964.871 H 2940.77 c -11.18,0 -20.25,9.051 -20.25,20.238 0,11.18 9.07,20.241 20.25,20.241 H 7500 v -40.479" /><path
         id="path168"
         style="fill:#e1b9e1;fill-opacity:1;fill-rule:nonzero;stroke:none"
         d="m 7115.79,3175.54 14.51,137.72 98.62,-95.29 -113.13,-42.43 m 25.03,108.79 -9.32,-88.49 72.69,27.28 -63.37,61.21" /><path
         id="path170"
         style="fill:#e1b9e1;fill-opacity:1;fill-rule:nonzero;stroke:none"
         d="m 6710.38,4591.51 52.72,126.6 80.81,-89.83 -133.53,-36.77 m 56.95,101.7 -33.86,-81.33 85.79,23.61 -51.93,57.72" /><path
         id="path172"
         style="fill:#e1b9e1;fill-opacity:1;fill-rule:nonzero;stroke:none"
         d="m 3774.11,3603.5 40.95,132.29 78.26,-112.59 -119.21,-19.7 m 45.66,101.87 -26.31,-85 76.59,12.66 -50.28,72.34" /><path
         id="path174"
         style="fill:#e1b9e1;fill-opacity:1;fill-rule:nonzero;stroke:none"
         d="m 5509.42,4718.32 -47.55,111.07 138.23,-8.19 -90.68,-102.88 m -26.55,96.31 30.56,-71.36 58.26,66.09 -88.82,5.27" /><path
         id="path176"
         style="fill:#e1b9e1;fill-opacity:1;fill-rule:nonzero;stroke:none"
         d="m 7086.75,4085.54 -137.61,85.36 85.37,137.6 137.61,-85.36 -85.37,-137.6 m -47.89,204.38 -71.14,-114.67 114.68,-71.14 71.14,114.68 -114.68,71.13" /><path
         id="path178"
         style="fill:#e1b9e1;fill-opacity:1;fill-rule:nonzero;stroke:none"
         d="m 4786.71,4563.89 -137.61,85.37 85.36,137.6 137.61,-85.36 -85.36,-137.61 m -47.89,204.39 -71.15,-114.68 114.68,-71.13 71.15,114.67 -114.68,71.14" /><path
         id="path180"
         style="fill:#e1b9e1;fill-opacity:1;fill-rule:nonzero;stroke:none"
         d="m 7346.85,3597.06 -1.87,41.97 41.97,1.87 1.87,-41.97 -41.97,-1.87" /><path
         id="path182"
         style="fill:#e1b9e1;fill-opacity:1;fill-rule:nonzero;stroke:none"
         d="m 5167.67,4128.86 -54.36,115.62 115.62,54.36 54.36,-115.61 -115.62,-54.37" /><path
         id="path184"
         style="fill:#e1b9e1;fill-opacity:1;fill-rule:nonzero;stroke:none"
         d="m 7056.68,3634.72 -77.78,22.48 22.48,77.79 77.78,-22.48 -22.48,-77.79" /><path
         id="path186"
         style="fill:#e1b9e1;fill-opacity:1;fill-rule:nonzero;stroke:none"
         d="m 6626.91,3829.65 -12.93,93.57 93.59,12.91 12.91,-93.56 -93.57,-12.92 m 69.13,91.27 -66.85,-9.22 9.24,-66.85 66.84,9.24 -9.23,66.83" /><path
         id="path188"
         style="fill:#e1b9e1;fill-opacity:1;fill-rule:nonzero;stroke:none"
         d="m 7393.28,2921.86 c -14.57,0 -26.38,11.81 -26.38,26.38 0,14.57 11.81,26.38 26.38,26.38 14.57,0 26.38,-11.81 26.38,-26.38 0,-14.57 -11.81,-26.38 -26.38,-26.38" /><path
         id="path190"
         style="fill:#e1b9e1;fill-opacity:1;fill-rule:nonzero;stroke:none"
         d="m 7286.38,4666.83 c -14.57,0 -26.38,11.81 -26.38,26.38 0,14.57 11.81,26.38 26.38,26.38 14.57,0 26.37,-11.81 26.37,-26.38 0,-14.57 -11.8,-26.38 -26.37,-26.38" /><path
         id="path192"
         style="fill:#e1b9e1;fill-opacity:1;fill-rule:nonzero;stroke:none"
         d="m 6886.98,2757.57 c -14.57,0 -26.38,11.81 -26.38,26.38 0,14.57 11.81,26.38 26.38,26.38 14.56,0 26.38,-11.81 26.38,-26.38 0,-14.57 -11.82,-26.38 -26.38,-26.38" /><path
         id="path194"
         style="fill:#e1b9e1;fill-opacity:1;fill-rule:nonzero;stroke:none"
         d="m 2774.27,4723.73 -77.79,22.47 22.48,77.78 77.78,-22.47 -22.47,-77.78" /><path
         id="path196"
         style="fill:#e1b9e1;fill-opacity:1;fill-rule:nonzero;stroke:none"
         d="m 3330.31,3925.46 -77.78,22.47 22.47,77.79 77.79,-22.47 -22.48,-77.79" /><path
         id="path198"
         style="fill:#e1b9e1;fill-opacity:1;fill-rule:nonzero;stroke:none"
         d="m 3302.66,4655.02 52.71,126.6 80.81,-89.83 -133.52,-36.77 m 56.95,101.69 -33.86,-81.33 85.79,23.61 -51.93,57.72" /><path
         id="path200"
         style="fill:#e1b9e1;fill-opacity:1;fill-rule:nonzero;stroke:none"
         d="m 4334.65,4210.79 c -14.57,0 -26.39,11.81 -26.39,26.38 0,14.56 11.82,26.38 26.39,26.38 14.57,0 26.37,-11.82 26.37,-26.38 0,-14.57 -11.8,-26.38 -26.37,-26.38" /><path
         id="path202"
         style="fill:#e1b9e1;fill-opacity:1;fill-rule:nonzero;stroke:none"
         d="m 2796.74,4210.79 c -14.56,0 -26.37,11.81 -26.37,26.38 0,14.56 11.81,26.38 26.37,26.38 14.57,0 26.38,-11.82 26.38,-26.38 0,-14.57 -11.81,-26.38 -26.38,-26.38" /><path
         id="path204"
         style="fill:#e1b9e1;fill-opacity:1;fill-rule:nonzero;stroke:none"
         d="m 3837.02,4198.65 -12.93,93.57 93.58,12.91 12.92,-93.56 -93.57,-12.92 m 69.13,91.27 -66.85,-9.22 9.24,-66.85 66.83,9.24 -9.22,66.83" /><path
         id="path206"
         style="fill:#e1b9e1;fill-opacity:1;fill-rule:nonzero;stroke:none"
         d="m 4015.68,4755.25 c -14.57,0 -26.37,11.8 -26.37,26.37 0,14.57 11.8,26.38 26.37,26.38 14.57,0 26.39,-11.81 26.39,-26.38 0,-14.57 -11.82,-26.37 -26.39,-26.37" /><path
         id="path208"
         style="fill:#e1b9e1;fill-opacity:1;fill-rule:nonzero;stroke:none"
         d="m 6280.99,4239.79 -77.79,22.48 22.48,77.78 77.79,-22.47 -22.48,-77.79" /><path
         id="path210"
         style="fill:#e1b9e1;fill-opacity:1;fill-rule:nonzero;stroke:none"
         d="m 5599.07,3779.67 c -14.57,0 -26.37,11.81 -26.37,26.38 0,14.57 11.8,26.38 26.37,26.38 14.57,0 26.38,-11.81 26.38,-26.38 0,-14.57 -11.81,-26.38 -26.38,-26.38" /><path
         id="path212"
         style="fill:#e1b9e1;fill-opacity:1;fill-rule:nonzero;stroke:none"
         d="m 4996.38,3516.83 c -14.57,0 -26.38,11.81 -26.38,26.38 0,14.57 11.81,26.38 26.38,26.38 14.57,0 26.37,-11.81 26.37,-26.38 0,-14.57 -11.8,-26.38 -26.37,-26.38" /><path
         id="path214"
         style="fill:#e1b9e1;fill-opacity:1;fill-rule:nonzero;stroke:none"
         d="m 6623.4,3191.15 -12.93,93.58 93.58,12.91 12.91,-93.56 -93.56,-12.93 m 69.13,91.28 -66.85,-9.22 9.23,-66.85 66.85,9.23 -9.23,66.84" /><path
         id="path216"
         style="fill:#e1b9e1;fill-opacity:1;fill-rule:nonzero;stroke:none"
         d="m 7163.88,2537.39 -12.93,93.57 93.57,12.92 12.92,-93.57 -93.56,-12.92 m 69.13,91.28 -66.86,-9.23 9.24,-66.84 66.85,9.23 -9.23,66.84" /><path
         id="path218"
         style="fill:#e1b9e1;fill-opacity:1;fill-rule:nonzero;stroke:none"
         d="m 6213.02,4733.62 -12.93,93.57 93.57,12.92 12.92,-93.57 -93.56,-12.92 m 69.13,91.28 -66.86,-9.23 9.24,-66.84 66.84,9.23 -9.22,66.84" /><path
         id="path220"
         style="fill:#e1b9e1;fill-opacity:1;fill-rule:nonzero;stroke:none"
         d="m 3301.31,3345.03 -12.93,93.57 93.58,12.92 12.92,-93.57 -93.57,-12.92 m 69.13,91.28 -66.85,-9.23 9.24,-66.84 66.84,9.23 -9.23,66.84" /><path
         id="path222"
         style="fill:#e1b9e1;fill-opacity:1;fill-rule:nonzero;stroke:none"
         d="m 4711.67,3908.27 -12.93,93.57 93.58,12.91 12.91,-93.56 -93.56,-12.92 m 69.13,91.27 -66.85,-9.22 9.23,-66.84 66.85,9.23 -9.23,66.83" /><path
         id="path224"
         style="fill:#e1b9e1;fill-opacity:1;fill-rule:nonzero;stroke:none"
         d="m 3957.76,3155.1 -54.36,115.62 115.61,54.36 54.37,-115.62 -115.62,-54.36" /><path
         id="path226"
         style="fill:#e1b9e1;fill-opacity:1;fill-rule:nonzero;stroke:none"
         d="m 2851.66,3722.89 -30.45,64.78 64.78,30.46 30.46,-64.78 -64.79,-30.46" /><path
         id="path228"
         style="fill:#e1b9e1;fill-opacity:1;fill-rule:nonzero;stroke:none"
         d="m 5800.7,4197.02 -27.18,57.81 57.81,27.18 27.18,-57.81 -57.81,-27.18" /><path
         id="path230"
         style="fill:#e1b9e1;fill-opacity:1;fill-rule:nonzero;stroke:none"
         d="m 6882.73,2301.04 -54.36,115.62 115.61,54.36 54.37,-115.61 -115.62,-54.37" /><path
         id="path232"
         style="fill:#e1b9e1;fill-opacity:1;fill-rule:nonzero;stroke:none"
         d="m 4340.71,3823.28 -27.17,57.81 57.8,27.18 27.18,-57.81 -57.81,-27.18" /><g
         transform="scale(10)"
         id="g234"><text
           id="text240"
           style="font-variant:normal;font-weight:600;font-size:7.80246019px;font-family:Montserrat;-inkscape-font-specification:Montserrat-SemiBold;writing-mode:lr-tb;fill:#f35ca3;fill-opacity:1;fill-rule:nonzero;stroke:none"
           transform="matrix(1,0,0,-0.99975006,81.7926,449.144)"><tspan
             id="tspan236"
             y="0"
             x="0 5.5551829 12.124854 19.576204 24.889679 30.733723 37.053715">COMPANY</tspan><tspan
             id="tspan238"
             y="9.3632803"
             x="0 4.5722699 11.141941 17.16544">LOGO</tspan></text>
</g><path
         id="path242"
         style="fill:#f35ca3;fill-opacity:1;fill-rule:nonzero;stroke:none"
         d="m 694.23,4553.36 -134.074,-77.4 c -4.742,-2.74 -10.582,-2.74 -15.316,0 l -133.047,76.81 c -10.215,5.9 -10.215,20.63 0,26.53 l 134.07,77.41 c 4.742,2.73 10.582,2.73 15.321,0 l 133.046,-76.82 c 10.211,-5.89 10.211,-20.63 0,-26.53" /><path
         id="path244"
         style="fill:#f35ca3;fill-opacity:1;fill-rule:nonzero;stroke:none"
         d="m 519.746,4278.21 -134.078,77.41 c -4.738,2.74 -7.66,7.79 -7.66,13.27 v 153.63 c 0,11.78 12.762,19.16 22.976,13.26 l 134.075,-77.4 c 4.742,-2.75 7.66,-7.8 7.66,-13.27 v -153.64 c 0,-11.78 -12.762,-19.15 -22.973,-13.26" /><path
         id="path246"
         style="fill:#f35ca3;fill-opacity:1;fill-rule:nonzero;stroke:none"
         d="m 720.352,4355.62 -134.079,-77.41 c -10.21,-5.89 -22.972,1.48 -22.972,13.26 v 153.64 c 0,5.47 2.922,10.52 7.66,13.27 l 134.074,77.4 c 10.215,5.9 22.973,-1.48 22.973,-13.26 v -153.63 c 0,-5.48 -2.914,-10.53 -7.656,-13.27" /><path
         id="path248"
         style="fill:#f35ca3;fill-opacity:1;fill-rule:nonzero;stroke:none"
         d="M 6857.74,4375.22 H 6529.3 c -47.45,0 -85.93,38.47 -85.93,85.91 0,47.44 38.48,85.9 85.93,85.9 h 328.44 c 47.46,0 85.93,-38.46 85.93,-85.9 0,-47.44 -38.47,-85.91 -85.93,-85.91" /><g
         transform="scale(10)"
         id="g250"><text
           id="text254"
           style="font-variant:normal;font-weight:600;font-size:7.80246019px;font-family:Montserrat;-inkscape-font-specification:Montserrat-SemiBold;writing-mode:lr-tb;fill:#ffffff;fill-opacity:1;fill-rule:nonzero;stroke:none"
           transform="matrix(1,0,0,-0.99975006,652.495,443.366)"><tspan
             id="tspan252"
             y="0"
             x="0 4.9077473 7.3967323 13.420232 19.740225 21.893703 28.04921">SIGN UP</tspan></text>
</g><g
         transform="scale(10)"
         id="g256"><text
           id="text260"
           style="font-variant:normal;font-weight:600;font-size:7.80246019px;font-family:Montserrat;-inkscape-font-specification:Montserrat-SemiBold;writing-mode:lr-tb;fill:#f35ca3;fill-opacity:1;fill-rule:nonzero;stroke:none"
           transform="matrix(1,0,0,-0.99975006,422.001,443.366)"><tspan
             id="tspan258"
             y="0"
             x="0 5.8440428 11.781714 18.351387 24.406063 75.031158 81.351151 86.50106 95.310135 -71.535179 -65.215187 -58.645515 -51.194164 146.14523 151.70038 158.27005 164.59004 169.01389 174.78 180.38983">ABOUTNEWSHOMECONTACT</tspan></text>
</g><g
         transform="scale(10)"
         id="g262"><text
           id="text274"
           style="font-variant:normal;font-weight:600;font-size:12.00300026px;font-family:Montserrat;-inkscape-font-specification:Montserrat-SemiBold;writing-mode:lr-tb;fill:#b5c7ea;fill-opacity:1;fill-rule:nonzero;stroke:none"
           transform="matrix(1,0,0,-0.99975006,26.8262,223.929)"><tspan
             id="tspan264"
             y="0"
             x="0 7.1298785 14.871814 19.793203 27.259069 39.898228 43.211056 46.679924 54.913982 61.095528 69.269569 81.90873 85.221558 93.467621 101.20955 104.67842 112.42036 117.46162 120.77444 126.95599 130.42485 135.51413 138.82695 146.11278 158.81148 166.27734 171.48682 174.41554">Lorem ipsum dolor sit amet, </tspan><tspan
             id="tspan266"
             y="14.4036"
             x="0 6.8774419 14.619377 22.841433 29.022976 36.488842 43.546467 48.420002 55.885868 60.975143 69.149185 76.615051 81.656311 84.969139 92.31485 100.56091 104.02978 112.26383 115.7327 121.91425 128.88799 132.35686 140.6386 148.96867 152.28149 159.74736 163.21623 166.6851 171.89458 174.8233 178.13614 184.31767 191.78354 200.0296">consectetuer adipiscing elit, sed </tspan><tspan
             id="tspan268"
             y="28.807199"
             x="0 8.2460613 11.714928 19.00075 31.639908 34.952736 43.234375 50.976307 59.198364 67.371872 80.011032 92.530037 99.467773 102.7806 111.00266 114.47153 122.70558 130.92764 134.24046 141.70633 149.88037 153.34924 159.53079 172.23 179.97192 188.21799">diam nonummy nibh euismod </tspan><tspan
             id="tspan270"
             y="43.2108"
             x="0 5.089272 8.5581388 16.840235 23.813978 27.282845 35.528904 43.70295 51.925003 57.014275 60.327103 68.500603 73.589874 76.902702 80.371567 87.716232 95.45816 100.37955 107.84541 115.31128 120.40056 123.71339 131.95944 139.70139 143.17024 150.91219 155.83308 163.29895">tincidunt ut laoreet dolore </tspan><tspan
             id="tspan272"
             y="57.613201"
             x="0 12.639159 19.984859 28.314941 36.536995 43.822815 47.135643 54.421467 57.890331 61.3592 69.593254 77.767303 85.053123 97.692284 101.00511 108.47098 113.41579 120.70161 125.79088 129.10371 135.86104 143.60297 147.07184 155.24588 160.33514 168.48555 175.77136 180.98033 183.90907">magna aliquam erat volutpat. </tspan></text>
</g><path
         id="path276"
         style="fill:#f35ca3;fill-opacity:1;fill-rule:nonzero;stroke:none"
         d="M 891.047,1040.63 H 390.375 c -67.441,0 -122.113,54.68 -122.113,122.12 0,67.44 54.672,122.11 122.113,122.11 h 500.672 c 67.437,0 122.113,-54.67 122.113,-122.11 0,-67.44 -54.676,-122.12 -122.113,-122.12" /><g
         transform="scale(10)"
         id="g278"><text
           id="text282"
           style="font-variant:normal;font-weight:600;font-size:7.80246019px;font-family:Montserrat;-inkscape-font-specification:Montserrat-SemiBold;writing-mode:lr-tb;fill:#ffffff;fill-opacity:1;fill-rule:nonzero;stroke:none"
           transform="matrix(1,0,0,-0.99975006,38.5039,112.605)"><tspan
             id="tspan280"
             y="0"
             x="0 5.7035985 10.931247 16.77529 23.220121 25.3736 32.824951 39.394623 45.098221">READ MORE</tspan></text>
</g><g
         transform="scale(10)"
         id="g284"><text
           id="text288"
           style="font-variant:normal;font-weight:bold;font-size:34px;font-family:Montserrat;-inkscape-font-specification:Montserrat-Bold;writing-mode:lr-tb;fill:#f35ca3;fill-opacity:1;fill-rule:nonzero;stroke:none"
           transform="matrix(1,0,0,-1,26.8262,295.05)"><tspan
             id="tspan286"
             y="0"
             x="0 24.411606 53.107605 80.579605 100.40191 126.10602 150.79012 171.80211 181.42412 208.21611">CONTACT US</tspan></text>
</g><g
         transform="scale(10)"
         id="g290"><text
           id="text294"
           style="font-variant:normal;font-weight:bold;font-size:22.40159988px;font-family:Montserrat;-inkscape-font-specification:Montserrat-Bold;writing-mode:lr-tb;fill:#b5c7ea;fill-opacity:1;fill-rule:nonzero;stroke:none"
           transform="matrix(1,0,0,-1,26.8262,266.051)"><tspan
             id="tspan292"
             y="0"
             x="0 13.664599 30.824224 48.924717 67.428436 74.775612 92.876099 110.14774 116.48739 131.87749 148.81297 166.08461">LANDING PAGE</tspan></text>
</g><path
         id="path296"
         style="fill:#171f26;fill-opacity:1;fill-rule:nonzero;stroke:none"
         d="m 3851.04,345.34 c -4.32,-4.43 -8.03,-9.309 -11.09,-14.531 l -4.65,2.41 c -0.66,2.98 -3.48,5.019 -6.58,4.66 -3.31,-0.387 -5.68,-3.391 -5.29,-6.699 0.39,-3.309 3.39,-5.668 6.7,-5.282 l 1.83,0.512 4.51,-2.34 c -2.51,-5.539 -4.32,-11.379 -5.39,-17.429 l 7.46,-1.321 c 2.31,13.059 8.5,25.071 17.92,34.731 l -5.42,5.289" /><path
         id="path298"
         style="fill:#171f26;fill-opacity:1;fill-rule:nonzero;stroke:none"
         d="m 3905.92,368.359 c -1.71,0 -3.41,-0.058 -5.1,-0.168 l -0.73,6.258 c 1.87,1.5 2.96,3.891 2.65,6.449 -0.46,3.934 -4.02,6.743 -7.95,6.282 -3.93,-0.461 -6.74,-4.032 -6.28,-7.95 0.3,-2.539 1.89,-4.621 4.05,-5.64 l 0.73,-6.25 c -7.14,-1.16 -14.03,-3.32 -20.59,-6.449 l 3.27,-6.84 c 9.33,4.461 19.41,6.73 29.95,6.73 4.96,0 9.93,-0.531 14.74,-1.57 l 1.62,7.398 c -5.36,1.161 -10.85,1.75 -16.36,1.75" /><path
         id="path300"
         style="fill:#171f26;fill-opacity:1;fill-rule:nonzero;stroke:none"
         d="m 3971.94,342.891 c 3.31,0.398 5.67,3.418 5.26,6.718 -0.41,3.313 -3.42,5.661 -6.72,5.262 -3.1,-0.383 -5.36,-3.039 -5.3,-6.09 l -4.16,-3.633 c -4.18,4.301 -8.9,8.133 -14.09,11.391 l -4.03,-6.41 c 11.34,-7.149 20.21,-17.258 25.64,-29.25 l 6.9,3.121 c -2.51,5.539 -5.67,10.73 -9.42,15.449 l 4.02,3.512 1.9,-0.07" /><path
         id="path302"
         style="fill:#171f26;fill-opacity:1;fill-rule:nonzero;stroke:none"
         d="m 3900.44,266.281 c -3.86,-0.242 -7.74,-0.351 -11.57,-0.351 -8.8,0 -17.33,0.601 -24.79,1.789 -3.89,0.621 -8.45,1.551 -12.69,2.922 10.46,-18.61 30.69,-31.25 53.87,-31.25 28.56,0 52.63,19.16 59.51,45.039 -6.82,-4.489 -15.06,-8.25 -24.59,-11.231 -11.79,-3.679 -25.54,-6.07 -39.74,-6.918" /><path
         id="path304"
         style="fill:#171f26;fill-opacity:1;fill-rule:nonzero;stroke:none"
         d="m 3931.7,297.141 c -7.5,0 -13.6,6.089 -13.6,13.589 0,7.508 6.1,13.61 13.6,13.61 7.5,0 13.6,-6.102 13.6,-13.61 0,-7.5 -6.1,-13.589 -13.6,-13.589 z m -47.37,-9.082 c -10.21,0 -18.5,8.293 -18.5,18.492 0,10.199 8.29,18.5 18.5,18.5 10.19,0 18.49,-8.301 18.49,-18.5 0,-10.199 -8.3,-18.492 -18.49,-18.492 z m 21.59,65.14 c -33.53,0 -60.8,-26.668 -60.8,-59.429 0,-4.258 0.47,-8.5 1.37,-12.622 6.74,-4.82 27.06,-8.898 53.48,-7.296 28.79,1.73 52.97,9.57 66.72,21.578 -0.06,1.949 -0.21,3.902 -0.45,5.82 -3.81,29.621 -29.74,51.949 -60.32,51.949" /><path
         id="path306"
         style="fill:#171f26;fill-opacity:1;fill-rule:nonzero;stroke:none"
         d="m 4065.95,334.531 c -2.94,1.16 -8.05,3.09 -13.82,2.367 -5.51,-0.679 -8.44,-3.398 -8.44,-10.066 v -8.66 h 22.28 V 301 h -22.28 v -54.551 h -19.31 V 301 h -13.4 v 17.172 h 13.4 v 8.887 c 0,16.8 8.95,27.82 25.68,27.82 6.42,0 11.57,-1.207 15.9,-3.07 l -0.01,-17.278" /><path
         id="path308"
         style="fill:#171f26;fill-opacity:1;fill-rule:nonzero;stroke:none"
         d="m 4112.98,301.211 c -1.77,0.289 -3.58,0.461 -5.27,0.461 -8.95,0 -15.09,-5.481 -15.09,-16.133 v -39.09 h -19.32 v 71.723 h 18.72 v -7.84 c 4.52,6.738 11.41,9.77 20.22,9.77 4.14,0 8.47,-1.274 10.93,-3.364 l -10.19,-15.527" /><path
         id="path310"
         style="fill:#171f26;fill-opacity:1;fill-rule:nonzero;stroke:none"
         d="m 4138.51,289.09 h 31.74 c -1.76,9.18 -7.32,14.359 -15.61,14.359 -9.1,0 -14.43,-5.48 -16.13,-14.359 z m 51.14,-6.66 c 0,-2.231 -0.15,-4.891 -0.37,-6.508 h -50.84 c 2.07,-10.363 9.32,-14.891 18.43,-14.891 6.21,0 12.94,2.52 18.12,6.891 l 11.33,-12.434 c -8.15,-7.476 -18.51,-10.879 -30.57,-10.879 -21.98,0 -37.22,14.95 -37.22,37.52 0,22.582 14.8,37.973 36.26,37.973 20.65,0 34.79,-15.332 34.86,-37.672" /><path
         id="path312"
         style="fill:#171f26;fill-opacity:1;fill-rule:nonzero;stroke:none"
         d="m 4215.04,289.09 h 31.75 c -1.77,9.18 -7.33,14.359 -15.62,14.359 -9.1,0 -14.43,-5.48 -16.13,-14.359 z m 51.14,-6.66 c 0,-2.231 -0.14,-4.891 -0.37,-6.508 h -50.84 c 2.07,-10.363 9.32,-14.891 18.43,-14.891 6.21,0 12.95,2.52 18.13,6.891 l 11.32,-12.434 c -8.14,-7.476 -18.5,-10.879 -30.56,-10.879 -21.99,0 -37.23,14.95 -37.23,37.52 0,22.582 14.8,37.973 36.26,37.973 20.65,0 34.79,-15.332 34.86,-37.672" /><path
         id="path314"
         style="fill:#171f26;fill-opacity:1;fill-rule:nonzero;stroke:none"
         d="m 4292.87,282.352 c 0,-11.332 7.47,-19.762 18.43,-19.762 11.4,0 18.5,8.808 18.5,19.762 0,10.957 -7.1,19.769 -18.5,19.769 -10.96,0 -18.43,-8.441 -18.43,-19.769 z m 56.77,0 c 0,-21.543 -14.95,-37.743 -34.71,-37.743 -9.63,0 -16.43,3.77 -21.09,9.321 v -37.078 h -19.25 v 101.32 h 18.88 v -7.922 c 4.66,5.852 11.54,9.852 21.38,9.852 19.84,0 34.79,-16.204 34.79,-37.75" /><path
         id="path316"
         style="fill:#171f26;fill-opacity:1;fill-rule:nonzero;stroke:none"
         d="m 4378.09,246.449 h -19.32 v 71.723 h 19.32 z m 2.58,95.192 c 0,-6.961 -5.4,-12.289 -12.36,-12.289 -6.95,0 -12.28,5.328 -12.28,12.289 0,6.949 5.33,12.429 12.28,12.429 6.96,0 12.36,-5.48 12.36,-12.429" /><path
         id="path318"
         style="fill:#171f26;fill-opacity:1;fill-rule:nonzero;stroke:none"
         d="m 4410.32,292.641 27.01,25.531 h 23.7 l -34.8,-33.75 35.01,-37.973 h -23.76 l -27.16,29.02 v -29.02 h -19.31 v 106.59 h 19.31 v -60.398" /><path
         id="path320"
         style="fill:#171f26;fill-opacity:1;fill-rule:nonzero;stroke:none"
         d="m 3094.13,266.301 v 32.07 c -3.96,6.16 -12.46,11.43 -21.24,11.43 -14.21,0 -22.71,-11.719 -22.71,-27.403 0,-15.66 8.5,-27.238 22.71,-27.238 8.78,0 17.28,4.981 21.24,11.141 z m 0,-19.192 v 10.551 c -5.28,-7.18 -13.92,-12.308 -23.88,-12.308 -18.46,0 -31.5,14.058 -31.5,37.046 0,22.571 12.9,37.211 31.5,37.211 9.52,0 18.16,-4.687 23.88,-12.449 v 37.641 h 10.98 v -97.692 h -10.98" /><path
         id="path322"
         style="fill:#171f26;fill-opacity:1;fill-rule:nonzero;stroke:none"
         d="m 3154.03,310.531 c -15.08,0 -22.56,-12.75 -23.14,-23.582 h 46.43 c -0.14,10.551 -7.17,23.582 -23.29,23.582 z m -34.71,-27.98 c 0,20.508 14.64,37.058 34.86,37.058 21.39,0 33.98,-16.699 33.98,-37.929 v -2.789 h -57.27 c 0.88,-13.321 10.25,-24.461 25.49,-24.461 8.05,0 16.26,3.23 21.82,8.941 l 5.28,-7.18 c -7.03,-7.031 -16.56,-10.839 -28.13,-10.839 -20.95,0 -36.03,15.089 -36.03,37.199" /><path
         id="path324"
         style="fill:#171f26;fill-opacity:1;fill-rule:nonzero;stroke:none"
         d="m 3196.07,256.48 5.71,7.911 c 4.69,-5.43 13.63,-10.11 23.29,-10.11 10.84,0 16.7,5.129 16.7,12.16 0,17.129 -43.8,6.59 -43.8,32.821 0,10.968 9.53,20.347 26.37,20.347 12.01,0 20.51,-4.539 26.22,-10.257 l -5.13,-7.614 c -4.24,5.121 -12.01,8.934 -21.09,8.934 -9.67,0 -15.67,-4.832 -15.67,-11.133 0,-15.519 43.79,-5.269 43.79,-32.801 0,-11.879 -9.52,-21.386 -27.83,-21.386 -11.57,0 -21.38,3.519 -28.56,11.128" /><path
         id="path326"
         style="fill:#171f26;fill-opacity:1;fill-rule:nonzero;stroke:none"
         d="m 3266.67,247.109 v 70.743 h 10.99 v -70.743 z m -1.9,88.172 c 0,4.098 3.37,7.469 7.32,7.469 4.11,0 7.47,-3.371 7.47,-7.469 0,-4.101 -3.36,-7.312 -7.47,-7.312 -3.95,0 -7.32,3.211 -7.32,7.312" /><path
         id="path328"
         style="fill:#171f26;fill-opacity:1;fill-rule:nonzero;stroke:none"
         d="m 3347.08,267.469 v 30.902 c -3.8,6.16 -12.3,11.43 -21.08,11.43 -14.22,0 -22.71,-11.289 -22.71,-26.949 0,-15.543 8.49,-26.954 22.71,-26.954 8.78,0 17.28,5.411 21.08,11.571 z m -51.26,-38.528 5.57,8.207 c 5.86,-7.027 12.89,-9.668 22.99,-9.668 11.72,0 22.7,5.711 22.7,21.239 v 10.109 c -5.12,-7.18 -13.76,-12.598 -23.73,-12.598 -18.45,0 -31.48,13.77 -31.48,36.622 0,22.699 12.88,36.757 31.48,36.757 9.53,0 18.03,-4.687 23.73,-12.449 v 10.692 h 10.99 V 249.16 c 0,-23.441 -16.4,-30.762 -33.69,-30.762 -12.01,0 -20.21,2.34 -28.56,10.543" /><path
         id="path330"
         style="fill:#171f26;fill-opacity:1;fill-rule:nonzero;stroke:none"
         d="m 3424.13,247.109 v 46.289 c 0,12.442 -6.29,16.403 -15.81,16.403 -8.65,0 -16.86,-5.27 -20.95,-10.992 v -51.7 h -10.99 v 70.743 h 10.99 v -10.25 c 4.98,5.859 14.64,12.007 25.19,12.007 14.79,0 22.56,-7.468 22.56,-22.839 v -49.661 h -10.99" /><path
         id="path332"
         style="fill:#171f26;fill-opacity:1;fill-rule:nonzero;stroke:none"
         d="m 3484.04,310.531 c -15.08,0 -22.56,-12.75 -23.14,-23.582 h 46.43 c -0.15,10.551 -7.18,23.582 -23.29,23.582 z m -34.71,-27.98 c 0,20.508 14.64,37.058 34.86,37.058 21.38,0 33.98,-16.699 33.98,-37.929 v -2.789 h -57.27 c 0.88,-13.321 10.25,-24.461 25.49,-24.461 8.05,0 16.25,3.23 21.82,8.941 l 5.28,-7.18 c -7.03,-7.031 -16.56,-10.839 -28.13,-10.839 -20.95,0 -36.03,15.089 -36.03,37.199" /><path
         id="path334"
         style="fill:#171f26;fill-opacity:1;fill-rule:nonzero;stroke:none"
         d="m 3583.5,266.301 v 32.07 c -3.96,6.16 -12.45,11.43 -21.24,11.43 -14.21,0 -22.7,-11.719 -22.7,-27.403 0,-15.66 8.49,-27.238 22.7,-27.238 8.79,0 17.28,4.981 21.24,11.141 z m 0,-19.192 v 10.551 c -5.27,-7.18 -13.92,-12.308 -23.88,-12.308 -18.45,0 -31.49,14.058 -31.49,37.046 0,22.571 12.89,37.211 31.49,37.211 9.52,0 18.17,-4.687 23.88,-12.449 v 37.641 h 10.99 v -97.692 h -10.99" /><path
         id="path336"
         style="fill:#171f26;fill-opacity:1;fill-rule:nonzero;stroke:none"
         d="m 3679,255.16 c 14.35,0 22.85,11.578 22.85,27.238 0,15.684 -8.5,27.403 -22.85,27.403 -8.64,0 -17.29,-5.27 -21.09,-11.43 v -32.07 c 3.8,-6.16 12.45,-11.141 21.09,-11.141 z m -32.08,-8.051 v 97.692 h 10.99 V 307.16 c 5.71,7.762 14.2,12.449 23.87,12.449 18.46,0 31.5,-14.64 31.5,-37.211 0,-22.988 -13.04,-37.046 -31.5,-37.046 -9.96,0 -18.6,5.128 -23.87,12.308 v -10.551 h -10.99" /><path
         id="path338"
         style="fill:#171f26;fill-opacity:1;fill-rule:nonzero;stroke:none"
         d="m 3725.28,229.379 c 1.61,-0.731 4.26,-1.168 6.01,-1.168 4.83,0 8.06,1.609 10.55,7.469 l 4.69,10.699 -29.6,71.473 h 11.87 l 23.58,-58 23.44,58 h 12.01 l -35.45,-85.102 c -4.25,-10.25 -11.42,-14.211 -20.8,-14.352 -2.34,0 -6,0.442 -8.05,1.024 l 1.75,9.957" /></g></g></svg>